<ttFont>
          <CharString index="0">
            rmoveto
            -340 65 -257 466 454 116 235 329 vhcurveto
            792 vlineto
            42 6 70 10 41 17 -9 86 rcurveline
            -464 -94 callgsubr
            -9 callsubr
            171 -31 rlineto
            -791 vlineto
            -210 -25 -230 -331 -380 -21 212 298 vhcurveto
            721 vlineto
            47 6 87 11 48 19 -9 84 rcurveline
            -516 -94 callgsubr
            -9 callsubr
            166 -31 rlineto
            endchar
          </CharString>
          <CharString index="1">
            -105 callgsubr
            -77 callsubr
            return
          </CharString>
          <CharString index="2">
            -101 callsubr
            468 hlineto
            -74 callgsubr
            return
          </CharString>
          <CharString index="3">
            rmoveto
            -105 callsubr
            hintmask 00111100
            -58 callgsubr
            hintmask 10011100
            -85 callgsubr
          </CharString>
          <CharString index="4">
            -41 callgsubr
            -266 -169 -159 -390 2 94 callsubr
            192 -41 callsubr
            79 109 -12 -227 6 hvcurveto
            endchar
          </CharString>
          <CharString index="5">
            427 208 2 50 -115 85 -361 -267 14 -35 20 -29 13 -12 rlinecurve
            return
          </CharString>
          <CharString index="6">
            440 hlineto
            9 90 -203 32 rlineto
            -5 hlineto
            125 374 rlineto
            541 hlineto
            128 -374 -54 -7 -85 -11 -54 -14 rlinecurve
            9 -90 rlineto
            return
          </CharString>
          <CharString index="7">
            1137 rmoveto
            225 207 226 -207 24 7 41 31 11 25 rlinecurve
            -246 308 rlineto
            -101 hlineto
            -255 -308 16 -23 38 -31 21 -9 rlinecurve
            return
          </CharString>
          <CharString index="8">
            83 24 48 56 67 -24 40 -83 -87 -22 82 callgsubr
            22 -48 87 hvcurveto
            -424 hmoveto
            83 29 48 56 67 -29 40 -83 -80 -24 -49 -58 return
          </CharString>
          <CharString index="9">
            -80 callgsubr
            -395 -73 callsubr
            return
          </CharString>
          <CharString index="10">
            -47 callsubr
            hintmask 01110100
            -106 callgsubr
          </CharString>
          <CharString index="11">
            566 hlineto
            5 -20 callsubr
            40 callsubr
            -211 32 rlineto
            512 vlineto
            439 697 31 6 52 12 19 10 rlinecurve
            -12 89 rlineto
            -420 hlineto
            -6 19 callgsubr
            -9 callsubr
            185 -33 -353 -582 -42 83 rlineto
            return
          </CharString>
          <CharString index="12">
            -74 -42 -136 -48 -83 3 rrcurveto
            -124 2 -39 31 158 vvcurveto
            570 vlineto
            41 -6 66 -111 -75 -101 -41 1 callsubr
            -83 rlineto
            81 callgsubr
            endchar
          </CharString>
          <CharString index="13">
            -55 callgsubr
            -88 callsubr
            return
          </CharString>
          <CharString index="14">
            -2 vlineto
            -98 callgsubr
          </CharString>
          <CharString index="15">
            -85 callsubr
            -82 callsubr
            return
          </CharString>
          <CharString index="16">
            -100 callgsubr
            -42 callsubr
            rlinecurve
            return
          </CharString>
          <CharString index="17">
            -53 callgsubr
            -93 callsubr
          </CharString>
          <CharString index="18">
            -9 -7 -25 -20 vvcurveto
            -9 0 -19 return
          </CharString>
          <CharString index="19">
            -61 -120 -32 -20 -52 hvcurveto
            37 callgsubr
            170 -18 callsubr
            -65 71 callsubr
            return
          </CharString>
          <CharString index="20">
            -56 callgsubr
            -64 callsubr
          </CharString>
          <CharString index="21">
            13 vlineto
            420 -68 331 -473 vhcurveto
            -90 callsubr
          </CharString>
          <CharString index="22">
            rmoveto
            -75 callsubr
            76 123 38 14 33 vhcurveto
            -7 83 rlineto
            return
          </CharString>
          <CharString index="23">
            -187 523 hlineto
            262 -70 88 -257 -176 -129 -77 -18 -36 vhcurveto
            return
          </CharString>
          <CharString index="24">
            rmoveto
            -643 272 -95 373 213 205 76 61 67 vhcurveto
            454 vlineto
            75 29 2 2 -4 79 -7 16 rlinecurve
            -476 hlineto
            -11 -21 -2 -60 2 -21 50 -11 151 -13 38 -5 rrcurveto
            2 -413 hlineto
            -26 -49 -126 -19 -102 hhcurveto
            -361 -118 210 24 callgsubr
            88 115 -9 -52 110 hvcurveto
            18 -219 39 54 callsubr
            59 27 162 -2 102 -2 13 rcurveline
            30 -73 -149 40 -213 hhcurveto
            -411 -258 57 callgsubr
            hvcurveto
            endchar
          </CharString>
          <CharString index="25">
            -182 766 hlineto
            41 -5 66 80 callsubr
            -124 20 callsubr
            69 callgsubr
            -643 hlineto
            return
          </CharString>
          <CharString index="26">
            1536 rmoveto
            17 27 12 18 12 36 -357 264 rcurveline
            -115 -90 2 -50 rlineto
            return
          </CharString>
          <CharString index="27">
            363 62 269 364 395 30 -302 -330 -365 -66 -271 -365 return
          </CharString>
          <CharString index="28">
            42 7 54 -7 39 rlinecurve
            -498 -6 rlineto
            523 525 vlineto
            18 -239 return
          </CharString>
          <CharString index="29">
            -61 callgsubr
            -66 callgsubr
            return
          </CharString>
          <CharString index="30">
            41 -97 rlineto
            31 84 83 23 90 hhcurveto
            156 47 -25 -180 2 hvcurveto
            return
          </CharString>
          <CharString index="31">
            -408 87 -349 470 vhcurveto
            56 123 rmoveto
            -384 -36 326 310 return
          </CharString>
          <CharString index="32">
            -257 69 -65 183 152 154 97 54 68 vhcurveto
            3 -41 hlineto
            -41 4 -69 111 return
          </CharString>
          <CharString index="33">
            -92 callsubr
            hintmask 01111010
            -95 callsubr
          </CharString>
          <CharString index="34">
            hmoveto
            83 24 47 56 66 -24 41 -83 -80 -24 -50 -57 -56 24 -47 80 hvcurveto
            return
          </CharString>
          <CharString index="35">
            33 -12 128 0 47 14 184 672 rcurveline
            17 115 21 -117 189 -672 34 -9 104 -9 70 16 rlinecurve
            264 841 return
          </CharString>
          <CharString index="36">
            172 2 rmoveto
            129 100 64 212 19 vhcurveto
            78 7 rlineto
            return
          </CharString>
          <CharString index="37">
            5 9 2 -3 callsubr
            -231 23 rlineto
            586 vlineto
            35 43 33 38 50 21 rrcurveto
            17 40 52 9 50 hhcurveto
            return
          </CharString>
          <CharString index="38">
            -2 65 -41 10 -87 28 -24 17 rlinecurve
            -111 81 -112 200 -92 132 374 290 rcurveline
            30 18 -4 82 rlineto
            -386 hlineto
            -9 -21 -2 -38 2 -21 30 -9 79 -8 64 -5 -128 -104 -172 -138 -121 -85 rrcurveto
            979 -3 callgsubr
            174 -1358 hlineto
            -64 -12 -74 -15 -31 -7 rrcurveto
            return
          </CharString>
          <CharString index="39">
            8 callsubr
            14 146 -53 callsubr
            return
          </CharString>
          <CharString index="40">
            43 -59 -82 24 -104 hhcurveto
            -223 -201 -102 -260 -189 84 -130 175 -31 hvcurveto
            -58 -125 -45 -102 53 -35 19 -19 rlinecurve
            167 378 rmoveto
            -131 -95 60 188 227 111 38 115 133 97 -47 -218 -179 -111 -69 -119 hvcurveto
            -226 -655 rmoveto
            5 144 72 59 74 43 68 -18 69 2 80 -2 rrcurveto
            return
          </CharString>
          <CharString index="41">
            -303 502 49 7 56 10 47 13 rlinecurve
            -10 89 rlineto
            -449 hlineto
            -4 -9 -8 -17 callgsubr
            return
          </CharString>
          <CharString index="42">
            21 -50 rlineto
            7 21 35 7 31 hhcurveto
            52 16 -26 -28 -77 -92 -65 -84 -71 hvcurveto
            45 -36 82 45 rlineto
            109 59 87 81 109 vvcurveto
            97 -75 40 -72 -24 -22 -2 -3 -21 vhcurveto
            return
          </CharString>
          <CharString index="43">
            -324 -123 -73 -154 -172 -104 73 324 vhcurveto
            endchar
          </CharString>
          <CharString index="44">
            rmoveto
            71 hlineto
            440 167 333 420 hvcurveto
            -86 callsubr
          </CharString>
          <CharString index="45">
            -70 callsubr
            42 34 -5 -4 23 hvcurveto
            return
          </CharString>
          <CharString index="46">
            1106 rmoveto
            29 8 28 16 22 -42 callgsubr
            return
          </CharString>
          <CharString index="47">
            -9 -7 -57 callsubr
            return
          </CharString>
          <CharString index="48">
            hmoveto
            462 hlineto
            11 21 4 33 -4 24 -159 33 rcurveline
            669 vlineto
            46 100 97 18 103 hhcurveto
            114 37 -45 -152 hvcurveto
            -538 vlineto
            -45 -8 -55 -11 -34 -12 7 89 callgsubr
            9 21 7 36 -7 21 -156 29 rcurveline
            550 vlineto
            258 -69 64 -210 -110 -108 -35 -87 -122 vhcurveto
            return
          </CharString>
          <CharString index="49">
            -31 45 97 -25 86 hhcurveto
            136 59 43 137 67 hvcurveto
            16 36 33 54 113 321 12 31 rcurveline
            return
          </CharString>
          <CharString index="50">
            -24 -19 vvcurveto
            -9 0 -12 return
          </CharString>
          <CharString index="51">
            -19 callgsubr
            279 -81 225 -343 return
          </CharString>
          <CharString index="52">
            -6 callsubr
            -5 11 callsubr
          </CharString>
          <CharString index="53">
            -383 hlineto
            -5 -60 callsubr
            -9 callsubr
            172 -30 -186 -648 rlineto
            return
          </CharString>
          <CharString index="54">
            2 93 rlinecurve
            -30 9 -43 2 -38 -2 return
          </CharString>
          <CharString index="55">
            -50 callsubr
            -82 callgsubr
          </CharString>
          <CharString index="56">
            rmoveto
            334 -364 24 10 37 35 13 23 rlinecurve
            -256 350 253 365 -15 25 -36 22 -20 5 rlinecurve
            -334 -370 rlineto
            return
          </CharString>
          <CharString index="57">
            -54 callgsubr
            -28 callsubr
            vhcurveto
            return
          </CharString>
          <CharString index="58">
            rmoveto
            -32 callsubr
            420 -68 331 -473 vhcurveto
            return
          </CharString>
          <CharString index="59">
            19 -14 callgsubr
            return
          </CharString>
          <CharString index="60">
            rmoveto
            -70 callgsubr
            return
          </CharString>
          <CharString index="61">
            319 0 -38 callgsubr
            return
          </CharString>
          <CharString index="62">
            -74 58 callgsubr
            334 89 312 138 return
          </CharString>
          <CharString index="63">
            112 -26 440 -706 rlineto
            -505 vlineto
            -55 -7 -87 -9 -54 -16 rrcurveto
            endchar
          </CharString>
          <CharString index="64">
            31 -7 45 0 38 5 21 210 rcurveline
            2 612 vlineto
            -794 -1195 rlineto
            -36 15 -68 16 -29 vhcurveto
            endchar
          </CharString>
          <CharString index="65">
            -279 -15 -203 -54 -12 -235 return
          </CharString>
          <CharString index="66">
            rmoveto
            179 16 59 76 173 hhcurveto
            return
          </CharString>
          <CharString index="67">
            46 7 58 9 44 14 -7 78 rcurveline
            -35 callgsubr
            return
          </CharString>
          <CharString index="68">
            hlineto
            -9 -30 -5 -29 2 -30 55 -12 52 -7 54 -7 rrcurveto
            return
          </CharString>
          <CharString index="69">
            1158 3 callsubr
            rrcurveto
            29 callsubr
            -47 callgsubr
            return
          </CharString>
          <CharString index="70">
            vstem
            85 hmoveto
            33 callgsubr
            -173 30 rcurveline
            -51 callgsubr
            return
          </CharString>
          <CharString index="71">
            97 -61 -22 -88 -52 -84 -47 -65 rlinecurve
            56 -40 rlineto
            83 65 140 122 149 vvcurveto
            78 -68 41 -67 return
          </CharString>
          <CharString index="72">
            97 113 64 160 59 hvcurveto
            -59 44 -53 -66 -70 -55 -58 1 rlinecurve
            return
          </CharString>
          <CharString index="73">
            rmoveto
            -77 callgsubr
            return
          </CharString>
          <CharString index="74">
            181 -34 callgsubr
            return
          </CharString>
          <CharString index="75">
            71 hlineto
            36 callsubr
            333 420 hvcurveto
            13 vlineto
            return
          </CharString>
          <CharString index="76">
            rmoveto
            -163 -62 -65 -141 -102 vvcurveto
            -238 201 -60 160 -3 vhcurveto
            266 293 128 294 225 -94 51 -377 -8 hvcurveto
            -68 -2 -59 10 14 80 19 102 rcurveline
            15 hlineto
            return
          </CharString>
          <CharString index="77">
            981 hlineto
            22 16 9 79 14 162 -53 callsubr
            -71 -239 rcurveline
            return
          </CharString>
          <CharString index="78">
            487 -27 callsubr
            return
          </CharString>
          <CharString index="79">
            -343 -155 -225 -279 return
          </CharString>
          <CharString index="80">
            hlineto
            9 23 3 31 -3 27 return
          </CharString>
          <CharString index="81">
            489 56 callgsubr
            27 18 -14 callgsubr
            18 26 callgsubr
            return
          </CharString>
          <CharString index="82">
            hmoveto
            544 hlineto
            440 248 194 523 hvcurveto
            82 vlineto
            511 -286 138 -362 vhcurveto
            -572 hlineto
            -9 -30 -3 -31 3 -30 54 -13 52 -7 55 -6 rrcurveto
            return
          </CharString>
          <CharString index="83">
            1206 -39 callgsubr
            return
          </CharString>
          <CharString index="84">
            78 hmoveto
            475 hlineto
            9 21 6 36 -6 24 -160 29 rcurveline
            307 vlineto
            129 72 202 -356 78 -97 66 -31 rlinecurve
            66 -32 116 4 57 50 rrcurveto
            return
          </CharString>
          <CharString index="85">
            92 -92 128 -8 8 429 112 664 115 return
          </CharString>
          <CharString index="86">
            176 0 250 221 vvcurveto
            845 94 callgsubr
            return
          </CharString>
          <CharString index="87">
            9 8 7 callgsubr
            return
          </CharString>
          <CharString index="88">
            rmoveto
            -279 80 -225 343 return
          </CharString>
          <CharString index="89">
            -730 hlineto
            -50 -9 return
          </CharString>
          <CharString index="90">
            -29 128 428 102 248 102 return
          </CharString>
          <CharString index="91">
            rmoveto
            5 callgsubr
            70 -74 rcurveline
            296 -21 callsubr
            -116 return
          </CharString>
          <CharString index="92">
            -310 rmoveto
            -36 callsubr
            -66 -59 -32 -85 5 vhcurveto
            endchar
          </CharString>
          <CharString index="93">
            24 callsubr
            2 38 -14 35 -40 17 -88 33 -61 -26 -20 -97 65 -47 rcurveline
            -8 -74 -68 -143 -29 -38 rrcurveto
            endchar
          </CharString>
          <CharString index="94">
            726 hlineto
            7 76 2 154 -9 56 -104 5 rcurveline
            -38 -183 rlineto
            -431 33 callsubr
            -20 26 vhcurveto
            -685 hlineto
            return
          </CharString>
          <CharString index="95">
            5 113 -5 109 -2 56 -21 8 -29 3 -56 -7 -57 -225 rcurveline
            return
          </CharString>
          <CharString index="96">
            148 -32 144 hstemhm
            return
          </CharString>
          <CharString index="97">
            2 -7 vhcurveto
            return
          </CharString>
          <CharString index="98">
            3 -7 vhcurveto
            return
          </CharString>
          <CharString index="99">
            -9 117 -96 -21 848 11 -8 10 18 80 return
          </CharString>
          <CharString index="100">
            -6 callsubr
            48 callgsubr
            return
          </CharString>
          <CharString index="101">
            26 callsubr
            -62 return
          </CharString>
          <CharString index="102">
            1206 return
          </CharString>
          <CharString index="103">
            54 -38 47 29 154 180 4 131 rlinecurve
            3 38 -14 36 return
          </CharString>
          <CharString index="104">
            24 -48 callsubr
            20 40 callsubr
            return
          </CharString>
          <CharString index="105">
            126 521 117 return
          </CharString>
          <CharString index="106">
            -14 -93 7 -101 11 -92 101 -5 rcurveline
            34 185 rlineto
            395 hlineto
            -560 -716 rlineto
            -36 14 -63 16 -29 vhcurveto
            endchar
          </CharString>
          <CharString index="107">
            525 hlineto
            4 9 7 7 callgsubr
            40 callsubr
            return
          </CharString>
          <CharString index="108">
            -14 -34 vhcurveto
            12 return
          </CharString>
          <CharString index="109">
            9 0 12 -2 8 vhcurveto
            -158 30 rlineto
            669 vlineto
            43 95 84 21 121 hhcurveto
            113 38 -45 -152 hvcurveto
            return
          </CharString>
          <CharString index="110">
            rmoveto
            -10 callgsubr
            return
          </CharString>
          <CharString index="111">
            126 -3 88 5 -185 vvcurveto
            -175 -119 -71 -196 -138 -134 50 151 5 vhcurveto
            endchar
          </CharString>
          <CharString index="112">
            -21 23 -21 28 -21 1335 111 return
          </CharString>
          <CharString index="113">
            -2 -7 -128 -67 -120 hhcurveto
            return
          </CharString>
          <CharString index="114">
            -18 rrcurveto
            endchar
          </CharString>
          <CharString index="115">
            21 16 10 79 return
          </CharString>
          <CharString index="116">
            726 1588 rmoveto
            84 27 47 61 63 -27 49 -84 -86 -23 -49 -63 -61 23 -47 86 hvcurveto
            return
          </CharString>
          <CharString index="117">
            -431 -16 callgsubr
            return
          </CharString>
          <CharString index="118">
            -51 7 callsubr
          </CharString>
          <CharString index="119">
            442 hlineto
            5 9 8 10 callgsubr
            -157 89 callsubr
            return
          </CharString>
          <CharString index="120">
            -43 callgsubr
            -54 return
          </CharString>
          <CharString index="121">
            269 180 return
          </CharString>
          <CharString index="122">
            1588 rmoveto
            86 25 47 61 63 -25 49 -86 -85 -23 -49 -63 -61 23 -47 85 hvcurveto
            return
          </CharString>
          <CharString index="123">
            -1206 return
          </CharString>
          <CharString index="124">
            163 20 -4 91 rlineto
            -449 hlineto
            -7 -28 -3 -36 5 -27 102 -20 rcurveline
            endchar
          </CharString>
          <CharString index="125">
            -435 -108 -134 -199 -146 vhcurveto
            return
          </CharString>
          <CharString index="126">
            323 -557 rlineto
            288 hlineto
            return
          </CharString>
          <CharString index="127">
            -38 1 callsubr
            return
          </CharString>
          <CharString index="128">
            -9 113 -111 118 -99 5 callsubr
            hstemhm
            return
          </CharString>
          <CharString index="129">
            41 -2 -3 66 -111 hhcurveto
            -76 91 callsubr
            -32 hvcurveto
            12 -86 rlineto
            172 return
          </CharString>
          <CharString index="130">
            1153 165 -120 19 15 86 return
          </CharString>
          <CharString index="131">
            rmoveto
            47 29 154 179 5 132 return
          </CharString>
          <CharString index="132">
            vlineto
            54 7 return
          </CharString>
          <CharString index="133">
            vlineto
            -54 -7 return
          </CharString>
          <CharString index="134">
            -620 128 499 -21 274 104 482 144 -113 102 return
          </CharString>
          <CharString index="135">
            -5 91 rlineto
            -449 hlineto
            -7 -28 -2 -36 4 -27 102 -20 rcurveline
            endchar
          </CharString>
          <CharString index="136">
            -3 71 79 -113 88 hhcurveto
            return
          </CharString>
          <CharString index="137">
            hstemhm
            36 1340 return
          </CharString>
          <CharString index="138">
            89 callgsubr
            5 9 7 24 19 vvcurveto
            hintmask 10101110
            9 0 12 return
          </CharString>
          <CharString index="139">
            rlineto
            -106 53 callsubr
            return
          </CharString>
          <CharString index="140">
            hlineto
            569 731 rlineto
            36 -21 49 return
          </CharString>
          <CharString index="141">
            -104 vlineto
            -68 -5 return
          </CharString>
          <CharString index="142">
            147 193 return
          </CharString>
          <CharString index="143">
            440 167 return
          </CharString>
          <CharString index="144">
            34 -7 124 -5 70 14 245 861 rcurveline
            30 165 return
          </CharString>
          <CharString index="145">
            -7 -20 81 callsubr
            -102 72 callsubr
            -17 11 callgsubr
            return
          </CharString>
          <CharString index="146">
            -151 rmoveto
            -2 -9 0 -18 -4 vvcurveto
            -10 2 -27 7 -20 vhcurveto
            return
          </CharString>
          <CharString index="147">
            -2 7 vhcurveto
            return
          </CharString>
          <CharString index="148">
            -32 5 -41 2 -38 -2 -33 -147 rcurveline
            -400 -17 rlineto
            return
          </CharString>
          <CharString index="149">
            10 -31 -18 vhcurveto
            -115 vlineto
            -71 return
          </CharString>
          <CharString index="150">
            35 callsubr
            851 191 return
          </CharString>
          <CharString index="151">
            -68 -5 -124 -25 -110 -29 return
          </CharString>
          <CharString index="152">
            216 203 216 return
          </CharString>
          <CharString index="153">
            hstem
            223 186 return
          </CharString>
          <CharString index="154">
            -5 callsubr
            rmoveto
            return
          </CharString>
          <CharString index="155">
            487 40 hstemhm
            return
          </CharString>
          <CharString index="156">
            5 18 2 70 -7 20 -144 -4 rcurveline
            284 vlineto
            return
          </CharString>
          <CharString index="157">
            -36 -187 -16 137 92 callsubr
            163 20 return
          </CharString>
          <CharString index="158">
            hintmask 0000000000000000
            return
          </CharString>
          <CharString index="159">
            vlineto
            -334 364 -24 -10 -37 -35 -13 -23 rlinecurve
            return
          </CharString>
          <CharString index="160">
            -72 -90 -82 -117 vvcurveto
            -97 return
          </CharString>
          <CharString index="161">
            -5 45 -13 callgsubr
            return
          </CharString>
          <CharString index="162">
            424 366 return
          </CharString>
          <CharString index="163">
            hlineto
            5 29 0 return
          </CharString>
          <CharString index="164">
            -425 127 return
          </CharString>
          <CharString index="165">
            -29 128 458 131 663 126 return
          </CharString>
          <CharString index="166">
            187 151 179 161 196 rlinecurve
            return
          </CharString>
          <CharString index="167">
            hlineto
            8 callsubr
            return
          </CharString>
          <CharString index="168">
            -539 vlineto
            -47 -9 return
          </CharString>
          <CharString index="169">
            127 418 hstemhm
            return
          </CharString>
          <CharString index="170">
            vlineto
            41 -2 return
          </CharString>
          <CharString index="171">
            629 hlineto
            7 71 7 132 -2 55 return
          </CharString>
          <CharString index="172">
            -13 59 -2 54 -7 rlinecurve
            return
          </CharString>
          <CharString index="173">
            205 55 callsubr
            return
          </CharString>
          <CharString index="174">
            -55 -7 -47 -5 -47 -11 return
          </CharString>
          <CharString index="175">
            167 hintmask 00000000
            return
          </CharString>
          <CharString index="176">
            hlineto
            4 28 0 return
          </CharString>
          <CharString index="177">
            237 167 return
          </CharString>
          <CharString index="178">
            -7 -50 -17 return
          </CharString>
          <CharString index="179">
            hhcurveto
            -300 return
          </CharString>
          <CharString index="180">
            -16 13 -123 -27 rlineto
            -270 vlineto
            return
          </CharString>
          <CharString index="181">
            -90 -27 -52 -64 -65 27 -50 90 hvcurveto
            return
          </CharString>
          <CharString index="182">
            -227 444 hstem
            198 156 return
          </CharString>
          <CharString index="183">
            1373 -20 hstem
            178 156 return
          </CharString>
          <CharString index="184">
            -48 -7 -63 -9 -50 -17 rrcurveto
            endchar
          </CharString>
          <CharString index="185">
            -48 -9 -59 -10 -49 -14 rrcurveto
            endchar
          </CharString>
          <CharString index="186">
            50 -90 -90 -23 -50 -66 vhcurveto
            endchar
          </CharString>
          <CharString index="187">
            -111 -76 return
          </CharString>
          <CharString index="188">
            -149 -45 return
          </CharString>
          <CharString index="189">
            -51 -18 rrcurveto
            return
          </CharString>
          <CharString index="190">
            -491 -21 1840 120 return
          </CharString>
          <CharString index="191">
            -228 -381 2019 hstem
            return
          </CharString>
          <CharString index="192">
            vvcurveto
            -97 76 -41 71 83 68 34 return
          </CharString>
          <CharString index="193">
            vlineto
            5 36 0 33 -5 35 rrcurveto
            return
          </CharString>
          <CharString index="194">
            85 26 48 61 61 -26 50 -85 return
          </CharString>
          <CharString index="195">
            179 hintmask 10111000
            return
          </CharString>
          <CharString index="196">
            27 rlineto
            549 vlineto
            return
          </CharString>
          <CharString index="197">
            499 123 hstem
            return
          </CharString>
          <CharString index="198">
            -128 -38 -14 return
          </CharString>
          <CharString index="199">
            -239 1087 return
          </CharString>
          <CharString index="200">
            137 99 15 return
          </CharString>
          <CharString index="201">
            hvcurveto
            178 return
          </CharString>
          <CharString index="202">
            95 184 return
          </CharString>
        <CharString name=".notdef">
          495 964 189 hstem
          160 178 907 178 vstem
          160 523 rmoveto
          -353 280 -278 352 349 282 278 353 349 -282 281 -349 -352 -280 -281 -349 vhcurveto
          230 -204 rmoveto
          -36 45 -25 83 9 56 125 34 144 11 128 2 -97 74 -115 87 -110 53 17 44 62 67 45 23 106 -97 83 -99 70 -118 7 127 11 121 -13 127 67 13 73 -13 45 -30 rrcurveto
          -29 -137 -44 -133 -65 -111 124 45 131 74 88 57 40 -50 21 -81 -7 -54 -99 -29 -165 -21 -137 -9 103 -74 147 -104 69 -30 -19 -45 -59 -71 -54 -19 -95 97 -76 109 -75 108 rrcurveto
          -10 -127 -6 -121 6 -135 -35 -9 -109 14 -38 38 27 116 52 125 56 133 -142 -50 -108 -61 -88 -55 rrcurveto
          endchar
        </CharString>
        <CharString name=".null">
          -1088 endchar
        </CharString>
        <CharString name="A">
          319 49 callgsubr
          -10 8 378 116 30 callsubr
          hintmask 10110000
          47 hmoveto
          -105 callsubr
          hintmask 01110000
          -58 callgsubr
          hintmask 10110000
          -85 callgsubr
        </CharString>
        <CharString name="AE">
          800 0 92 -92 120 -30 253 -238 15 528 124 559 117 hstemhm
          913 179 -175 88 hintmask 10011101
          33 hmoveto
          440 hlineto
          hintmask 00101101
          9 90 -203 32 rlineto
          -3 hlineto
          232 532 rlineto
          -5 hlineto
          50 115 rlineto
          5 hlineto
          243 557 rlineto
          hintmask 10011110
          112 -1204 hlineto
          -53 -7 -68 -11 -50 -9 rrcurveto
          -3 -5 -4 0 -3 hhcurveto
          12 -92 16 1 rlineto
          -1 1012 vlineto
          8 callsubr
          14 146 3 93 rlinecurve
          hintmask 00101101
          -32 9 -42 2 -37 -2 rrcurveto
          hintmask 01001101
          -67 -223 rlineto
          hintmask 01001110
          -548 534 hlineto
          468 -11 7 42 7 52 -7 38 rlinecurve
          -475 -4 rlineto
          560 501 vlineto
          19 -239 38 -5 39 -2 32 7 rlinecurve
          13 59 29 180 -2 101 -15 16 rcurveline
          -1182 hlineto
          -9 -30 -2 -33 2 -30 43 -11 22 -7 44 -6 -540 -1214 rcurveline
          hintmask 00101101
          -32 -7 -53 -11 -18 -9 rrcurveto
          hintmask 01001101
          487 564 rmoveto
          50 115 rlineto
          hintmask 01001110
          355 2 rlineto
          -117 vlineto
          endchar
        </CharString>
        <CharString name="Aacute">
          -46 callsubr
          926 343 30 callsubr
          -869 476 hintmask 01011010
          554 -104 callgsubr
          hintmask 10011100
          -507 -1538 -104 callsubr
        </CharString>
        <CharString name="Acircumflex">
          -46 callsubr
          919 332 30 callsubr
          -981 593 hintmask 01011010
          454 -99 callgsubr
          hintmask 10011100
          -407 -1531 -104 callsubr
        </CharString>
        <CharString name="Adieresis">
          -46 callsubr
          978 211 30 callsubr
          -1013 45 callsubr
          hintmask 01011011
          891 -102 callgsubr
          hintmask 10011100
          -420 -1590 -104 callsubr
        </CharString>
        <CharString name="Agrave">
          -46 callsubr
          924 345 30 callsubr
          -961 472 hintmask 01011010
          846 -81 callsubr
          hintmask 10011100
          -370 -1741 -104 callsubr
        </CharString>
        <CharString name="Aogonek">
          396 57 callsubr
          298 -38 callgsubr
          hstemhm
          56 1340 -430 147 hintmask 11001010
          67 hmoveto
          -101 callsubr
          272 hlineto
          -28 -16 32 callsubr
          75 -41 72 83 68 17 callgsubr
          85 77 hvcurveto
          89 hlineto
          hintmask 10101100
          -74 callgsubr
          hintmask 10011100
          -58 callgsubr
          hintmask 11001010
          -85 callgsubr
        </CharString>
        <CharString name="Aring">
          -46 callsubr
          891 46 callgsubr
          30 callsubr
          -910 45 callgsubr
          hintmask 0101110110000000
          688 1503 -91 callgsubr
          hintmask 1001111000000000
          -664 -1615 rmoveto
          -105 callsubr
          hintmask 0011111000000000
          -58 callgsubr
          hintmask 1001111000000000
          -85 callgsubr
        </CharString>
        <CharString name="Atilde">
          -46 callsubr
          953 -11 callsubr
          36 1340 -1060 742 hintmask 01010110
          362 -11 callgsubr
          rrcurveto
          hintmask 01011001
          -69 callgsubr
          rrcurveto
          hintmask 01010101
          -72 callgsubr
          hintmask 10010110
          -269 -1638 rmoveto
          -105 callsubr
          hintmask 00110110
          -58 callgsubr
          hintmask 10010110
          -85 callgsubr
        </CharString>
        <CharString name="B">
          240 80 callgsubr
          591 106 525 115 hstemhm
          14 callsubr
          505 183 -93 190 hintmask 00000000
          hintmask 11111000
          111 hmoveto
          563 hlineto
          388 172 128 296 207 -107 118 -196 29 hvcurveto
          128 54 78 127 147 vvcurveto
          231 -123 111 -324 vhcurveto
          -572 -87 callgsubr
          hintmask 11110100
          161 -28 rlineto
          -1203 vlineto
          hintmask 11111000
          -54 -8 -62 48 callgsubr
          347 708 rmoveto
          hintmask 11110100
          528 vlineto
          146 2 rlineto
          287 72 -73 -164 -146 -63 -134 -232 -8 hvcurveto
          -37 hlineto
          -173 -686 rmoveto
          575 vlineto
          168 5 rlineto
          274 153 -52 -226 hvcurveto
          hintmask 11111000
          -15 vlineto
          -215 -87 -81 -258 -2 vhcurveto
          -32 -33 0 7 -138 hvcurveto
          endchar
        </CharString>
        <CharString name="C">
          259 44 callgsubr
          hstem
          137 190 vstem
          137 709 -76 callgsubr
        </CharString>
        <CharString name="CR">
          -358 endchar
        </CharString>
        <CharString name="Cacute">
          207 44 callgsubr
          61 72 callgsubr
          97 189 290 476 -31 173 hintmask 11010100
          623 -104 callgsubr
          -526 -829 rmoveto
          -643 267 -95 373 213 201 76 61 66 vhcurveto
          7 117 -7 97 -15 73 -54 4 -30 0 -56 -7 -27 -243 rcurveline
          -27 -49 -118 -18 -102 hhcurveto
          -362 -118 205 24 callgsubr
          hvcurveto
          hintmask 00101000
          88 151 -18 -41 65 hvcurveto
          9 -196 rlineto
          -7 56 32 0 56 hhcurveto
          16 81 16 120 -11 114 rrcurveto
          30 -73 -144 43 -214 hhcurveto
          -410 -253 57 callgsubr
          hvcurveto
          endchar
        </CharString>
        <CharString name="Ccedilla">
          259 -241 128 84 133 -83 -21 1351 126 hstemhm
          137 190 530 147 hintmask 10111100
          681 -205 rmoveto
          -65 callsubr
          37 90 197 10 163 62 44 46 rlinecurve
          -12 callsubr
          hintmask 11011100
          -86 callgsubr
          -605 247 -124 352 -8 hvcurveto
          -37 -118 rlineto
          -1 vlineto
          endchar
        </CharString>
        <CharString name="Cdotaccent">
          207 44 callgsubr
          111 220 hstemhm
          97 190 330 220 hintmask 00101000
          9 callsubr
          hintmask 11010000
          -629 -879 -76 callgsubr
        </CharString>
        <CharString name="D">
          380 0 115 -115 122 1210 116 hstemhm
          272 179 697 192 hintmask 00000000
          hintmask 10111000
          108 -25 callsubr
          hintmask 01111000
          -1209 vlineto
          -55 -7 -61 -9 -54 -11 rrcurveto
          hintmask 10111000
          349 27 rmoveto
          1209 vlineto
          32 callgsubr
          51 callgsubr
        </CharString>
        <CharString name="E">
          -33 callsubr
          hstem
          14 callsubr
          vstem
          111 hmoveto
          -97 callgsubr
        </CharString>
        <CharString name="Eacute">
          -33 callsubr
          90 343 hstem
          14 callsubr
          15 476 vstem
          511 -104 callgsubr
          -400 -1538 rmoveto
          -97 callgsubr
        </CharString>
        <CharString name="Ecircumflex">
          -33 callsubr
          83 332 hstemhm
          14 callsubr
          -61 593 hintmask 11110100
          447 -99 callgsubr
          -336 -1531 -75 callgsubr
        </CharString>
        <CharString name="Edieresis">
          -33 callsubr
          142 211 hstemhm
          14 callsubr
          -100 45 callsubr
          hintmask 11110110
          877 -102 callgsubr
          -342 -1590 -34 callsubr
          hintmask 11111010
          -107 callgsubr
        </CharString>
        <CharString name="Edotaccent">
          186 -34 callgsubr
          140 220 hstem
          257 180 123 220 vstem
          669 1588 rmoveto
          85 26 47 61 63 -26 49 -85 -85 -24 -49 -63 -61 24 -47 85 hvcurveto
          -570 -1588 rmoveto
          -97 callgsubr
        </CharString>
        <CharString name="Egrave">
          -33 callsubr
          88 345 hstemhm
          14 callsubr
          -122 472 hintmask 11110100
          758 -81 callsubr
          -218 -1741 -75 callgsubr
        </CharString>
        <CharString name="Eogonek">
          164 57 callsubr
          298 120 -99 -21 684 -2 callsubr
          hstemhm
          247 180 371 146 hintmask 10111110
          89 hmoveto
          934 hlineto
          -29 -16 32 callsubr
          76 -41 70 84 68 34 27 47 vhcurveto
          -40 88 rlineto
          -7 -17 -42 -15 -30 hhcurveto
          -52 -18 27 29 82 93 90 92 70 hvcurveto
          -68 callsubr
          rrcurveto
          hintmask 11011110
          -66 -223 rlineto
          -107 callgsubr
        </CharString>
        <CharString name="Eth">
          398 0 115 -115 122 563 118 529 116 hstemhm
          113 691 -514 179 697 192 hintmask 01110110
          126 -25 callsubr
          -528 -172 vlineto
          hintmask 10111010
          -5 -118 rlineto
          hintmask 01110110
          177 -563 hlineto
          -55 -7 -61 -9 -54 -11 rrcurveto
          349 27 rmoveto
          563 330 vlineto
          4 28 5 60 -9 30 rrcurveto
          -330 528 hlineto
          32 callgsubr
          hintmask 10111010
          51 callgsubr
        </CharString>
        <CharString name="Euro">
          -57 58 callgsubr
          232 104 106 104 291 108 hstem
          167 178 vstem
          47 338 rmoveto
          130 hlineto
          -300 45 182 -67 191 hhcurveto
          192 93 callsubr
          21 hvcurveto
          -43 90 rlineto
          -2 -6 -127 -67 -122 hhcurveto
          -175 -85 70 162 -30 hvcurveto
          322 69 callsubr
          47 -4 29 rrcurveto
          -333 hlineto
          -1 20 0 21 22 vvcurveto
          43 345 vlineto
          5 29 0 47 -5 28 rrcurveto
          -338 hlineto
          20 199 69 90 131 2 rrcurveto
          26 99 -2 -36 76 hvcurveto
          14 -154 rlineto
          -4 38 28 0 38 hhcurveto
          14 54 26 121 -7 75 rrcurveto
          45 -104 -128 9 -87 hhcurveto
          -269 -124 -152 -247 -35 hvcurveto
          -114 hlineto
          -4 -104 rlineto
          109 hlineto
          -1 -20 0 -19 -20 vvcurveto
          -16 0 -16 1 -15 vhcurveto
          -116 hlineto
          endchar
        </CharString>
        <CharString name="F">
          67 0 122 -59 59 529 126 554 117 hstem
          279 179 vstem
          111 hmoveto
          606 hlineto
          4 9 7 31 -48 callsubr
          15 40 callsubr
          -268 32 rlineto
          535 vlineto
          451 -12 8 43 7 54 -7 38 rlinecurve
          -459 -5 rlineto
          556 476 vlineto
          18 -228 38 -4 43 -3 31 7 rlinecurve
          14 60 28 168 -3 101 -14 16 rcurveline
          -961 hlineto
          -6 -89 callsubr
          -9 callsubr
          161 20 callgsubr
          -72 -7 11 callsubr
        </CharString>
        <CharString name="G">
          330 58 callsubr
          hstem
          130 194 756 180 vstem
          130 709 -83 callsubr
        </CharString>
        <CharString name="Gdotaccent">
          292 58 callsubr
          111 220 hstemhm
          92 194 331 220 205 180 hintmask 00010100
          9 callsubr
          hintmask 11101010
          -634 -879 -83 callsubr
        </CharString>
        <CharString name="H">
          529 0 122 -39 47 546 118 534 120 hstem
          14 callsubr
          712 179 vstem
          12 callgsubr
          554 712 -554 vlineto
          -55 -7 -85 -7 -52 -18 10 -90 rcurveline
          0 callsubr
          -173 32 rlineto
          -5 callsubr
          25 callsubr
          60 7 52 20 -10 86 rcurveline
          -494 -87 callgsubr
          169 -31 rlineto
          -534 -712 534 vlineto
          45 5 95 11 49 20 -9 84 rcurveline
          -511 -87 callgsubr
          161 -31 rlineto
          -1206 -7 callsubr
          endchar
        </CharString>
        <CharString name="I">
          -358 -27 callgsubr
          hstem
          275 179 vstem
          104 hmoveto
          -84 callgsubr
        </CharString>
        <CharString name="IJ">
          290 -491 -21 512 -46 callgsubr
          hstem
          275 179 548 180 vstem
          695 -512 rmoveto
          -73 callgsubr
          -1125 vlineto
          18 callsubr
          -591 512 rmoveto
          -84 callgsubr
        </CharString>
        <CharString name="Iacute">
          -360 -27 callgsubr
          70 callgsubr
          166 476 -367 88 callsubr
          213 -104 callgsubr
          -109 -1538 -97 callsubr
        </CharString>
        <CharString name="Icircumflex">
          -346 -27 callgsubr
          83 332 hstemhm
          68 593 -384 88 callsubr
          127 -99 callgsubr
          -21 -1531 -97 callsubr
        </CharString>
        <CharString name="Idieresis">
          -348 -27 callgsubr
          142 211 hstem
          48 216 11 179 13 216 vstem
          576 -102 callgsubr
          -48 -1590 rmoveto
          -84 callgsubr
        </CharString>
        <CharString name="Idotaccent">
          -386 -27 callgsubr
          140 220 hstemhm
          239 219 -199 88 callsubr
          347 15 callsubr
          -259 -1588 -97 callsubr
        </CharString>
        <CharString name="Igrave">
          -358 -27 callgsubr
          88 345 hstemhm
          124 472 -321 88 callsubr
          555 -81 callsubr
          -22 -1741 -97 callsubr
        </CharString>
        <CharString name="Iogonek">
          -386 -422 127 295 -46 callgsubr
          hstemhm
          153 147 -42 179 hintmask 11011000
          87 hmoveto
          292 hlineto
          -29 -16 rlineto
          -107 -71 -90 -81 -116 vvcurveto
          -97 77 -41 70 83 68 34 28 48 vhcurveto
          -41 87 -20 callgsubr
          81 99 82 86 76 hvcurveto
          129 -60 callgsubr
          26 callgsubr
          hintmask 10110100
          -106 callgsubr
        </CharString>
        <CharString name="Itilde">
          -344 -27 callgsubr
          117 -11 callsubr
          -5 742 -453 179 hintmask 01101010
          41 -11 callgsubr
          rrcurveto
          hintmask 01110100
          -69 callgsubr
          rrcurveto
          hintmask 10101100
          -72 callgsubr
          118 -1638 -47 callsubr
          hintmask 01101010
          -106 callgsubr
        </CharString>
        <CharString name="J">
          -436 83 callsubr
          hstem
          255 180 vstem
          255 203 -52 callgsubr
        </CharString>
        <CharString name="Jcircumflex">
          -424 83 callsubr
          83 332 hstemhm
          29 593 -358 180 hintmask 11110000
          88 -99 callgsubr
          hintmask 11101000
          176 -1328 -52 callgsubr
        </CharString>
        <CharString name="K">
          349 0 130 -10 10 697 -20 526 115 -97 97 hstemhm
          14 callsubr
          hintmask 10110100
          12 callgsubr
          438 vlineto
          191 153 454 -713 rlineto
          313 hlineto
          7 16 2 76 -2 3 -169 23 rcurveline
          -474 709 512 501 45 19 3 2 2 83 -7 16 rlinecurve
          -397 hlineto
          hintmask 01101100
          -7 -25 0 -50 2 -22 50 -11 70 -5 38 -4 -262 -296 -168 -153 -203 -192 rrcurveto
          hintmask 01110100
          643 25 callsubr
          61 4 56 11 4 27 0 39 -4 27 rrcurveto
          -514 hlineto
          -4 -93 54 65 callsubr
          -1211 -7 callsubr
          endchar
        </CharString>
        <CharString name="L">
          105 25 callgsubr
          21 15 84 hstem
          14 callsubr
          vstem
          111 hmoveto
          -30 callsubr
          -36 callgsubr
        </CharString>
        <CharString name="Lacute">
          78 25 callgsubr
          21 15 84 70 callgsubr
          184 476 -403 180 hintmask 11111000
          231 -104 callgsubr
          -132 -1538 rmoveto
          -30 callsubr
          hintmask 11110100
          -36 callgsubr
        </CharString>
        <CharString name="Ldot">
          78 0 118 450 219 546 115 hstem
          257 180 404 221 vstem
          97 hmoveto
          983 60 callsubr
          14 162 2 93 rlinecurve
          -31 9 -42 2 -37 -2 -72 -241 rcurveline
          -508 1215 hlineto
          55 7 85 4 54 11 54 callgsubr
          -534 hlineto
          -7 -93 54 65 callsubr
          -1215 26 callsubr
          -59 -5 -54 -11 rrcurveto
          751 581 rmoveto
          -62 24 -46 85 85 27 46 62 61 -27 50 -85 -85 -24 -50 -61 vhcurveto
          endchar
        </CharString>
        <CharString name="Lslash">
          146 49 callgsubr
          331 511 366 21 15 84 hstemhm
          115 767 -573 180 hintmask 11110100
          151 hmoveto
          -30 callsubr
          -508 525 hlineto
          hintmask 11111000
          393 189 -3 31 -7 50 -12 44 rlinecurve
          -16 3 rlineto
          hintmask 11110100
          -355 -193 rlineto
          559 25 callsubr
          99 14 45 15 -9 84 rcurveline
          -523 hlineto
          -4 -9 -3 -18 -2 -22 rrcurveto
          -10 -2 -13 2 -17 vhcurveto
          163 -31 rlineto
          -656 vlineto
          hintmask 11111000
          -194 -100 rlineto
          -35 3 -36 10 -47 vhcurveto
          14 -3 rlineto
          hintmask 11110100
          167 95 rlineto
          -426 -55 callsubr
        </CharString>
        <CharString name="M">
          833 -2 99 -97 118 -103 -21 1325 128 -121 122 hstemhm
          59 1829 hintmask 00000000
          hintmask 01001100
          63 hmoveto
          429 hlineto
          4 33 5 30 -5 36 -36 9 -61 5 -61 5 83 1003 rcurveline
          9 200 52 -194 373 -1127 62 -9 45 0 62 16 rlinecurve
          342 1094 45 218 19 -216 130 -990 -175 -18 4 -97 492 2 7 29 2 39 -4 29 rlinecurve
          -142 18 rlineto
          hintmask 00110100
          -161 1211 55 7 35 4 55 12 rlinecurve
          -5 99 -395 -2 rlineto
          hintmask 01001100
          -333 -1110 -33 -131 -402 1243 rlineto
          -425 hlineto
          hintmask 10001100
          -9 -30 -4 -36 4 -31 54 -11 52 -7 54 -7 rrcurveto
          12 hlineto
          -104 63 callgsubr
          -34 -5 -77 -7 -24 -7 rlinecurve
          endchar
        </CharString>
        <CharString name="N">
          22 callgsubr
          hstemhm
          264 154 778 153 hintmask 10110011
          106 hmoveto
          -30 callgsubr
          hintmask 11001111
          -90 callgsubr
        </CharString>
        <CharString name="Nacute">
          500 0 -21 21 130 23 callsubr
          70 callgsubr
          264 154 265 476 37 153 hintmask 1110011110000000
          730 -104 callgsubr
          -624 -1538 rmoveto
          -30 callgsubr
          hintmask 1101111110000000
          -90 callgsubr
        </CharString>
        <CharString name="Ntilde">
          22 callgsubr
          117 -11 callsubr
          264 154 54 742 -18 153 hintmask 1010110110100000
          518 -11 callgsubr
          rrcurveto
          hintmask 1010111011000000
          -69 callgsubr
          rrcurveto
          hintmask 1101000111000000
          -72 callgsubr
          -366 -1638 rmoveto
          -57 callgsubr
          hintmask 1010110110100000
          43 callgsubr
          -90 callgsubr
        </CharString>
        <CharString name="O">
          -6 callgsubr
          hstem
          43 callsubr
          vstem
          704 -40 -63 callsubr
        </CharString>
        <CharString name="OE">
          907 -40 123 -83 83 -83 120 -120 204 480 -2 callsubr
          -93 122 hstemhm
          147 191 657 52 -50 54 hintmask 1000110101000000
          730 -40 rmoveto
          52 hlineto
          hintmask 0001110101000000
          86 2 77 15 69 23 rrcurveto
          862 hlineto
          22 16 10 79 13 146 3 93 rlinecurve
          -31 9 -42 2 -38 -2 rrcurveto
          hintmask 0010110101000000
          -67 -223 rlineto
          -567 10 -4 560 hlineto
          491 -11 7 -79 callsubr
          38 -5 40 -2 31 7 rlinecurve
          14 59 28 180 -2 101 -14 16 rcurveline
          -839 hlineto
          hintmask 1000101101000000
          13 -45 -69 16 -118 hhcurveto
          -439 -14 -196 -291 -453 vvcurveto
          -2 vlineto
          -485 120 -272 463 vhcurveto
          52 123 rmoveto
          -378 9 -66 255 372 vvcurveto
          413 102 210 342 13 vhcurveto
          hintmask 0100110110000000
          85 -4 69 -16 59 -24 rrcurveto
          -1184 vlineto
          -59 -29 -69 -13 -85 -2 rrcurveto
          endchar
        </CharString>
        <CharString name="Oacute">
          -6 callgsubr
          61 343 47 callgsubr
          278 476 97 191 hintmask 11010100
          665 -104 callgsubr
          39 -1578 -9 callgsubr
          hintmask 00101000
          -93 callsubr
        </CharString>
        <CharString name="Ocircumflex">
          -6 callgsubr
          54 332 47 callgsubr
          133 593 125 191 hintmask 11010100
          532 -99 callgsubr
          172 -1571 -49 callsubr
          hintmask 00101000
          -90 callsubr
        </CharString>
        <CharString name="Odieresis">
          -6 callgsubr
          hstemhm
          43 callsubr
          vstemhm
          981 -102 callgsubr
          147 -1630 -63 callsubr
        </CharString>
        <CharString name="Ograve">
          -6 callgsubr
          59 345 47 callgsubr
          143 472 236 191 hintmask 11010100
          914 -81 callsubr
          219 -1781 -9 callgsubr
          -2 vlineto
          hintmask 00101000
          -98 callgsubr
        </CharString>
        <CharString name="Oslash">
          439 -192 1811 -1659 123 1268 126 47 callgsubr
          -18 883 -14 191 hintmask 10001000
          322 -147 rmoveto
          99 -45 79 180 rlineto
          hintmask 01110100
          -18 59 67 -10 78 hhcurveto
          -32 callsubr
          310 -37 262 -211 116 vhcurveto
          hintmask 10001000
          71 160 -31 23 -32 15 -38 7 rlinecurve
          -73 -165 rlineto
          hintmask 01110100
          15 -55 -63 8 -72 hhcurveto
          -53 callgsubr
          -2 vlineto
          -298 46 -266 208 -122 vhcurveto
          hintmask 10001000
          70 157 rmoveto
          hintmask 01110100
          -116 121 -15 209 201 vvcurveto
          363 62 269 364 82 67 -13 -24 54 vhcurveto
          -408 -1191 rmoveto
          500 1128 rlineto
          117 -116 13 -202 -214 vvcurveto
          -365 -66 -271 -365 -81 -65 15 25 -53 vhcurveto
          endchar
        </CharString>
        <CharString name="Otilde">
          -6 callgsubr
          88 -11 callsubr
          147 193 75 742 34 191 hintmask 11001010
          461 -11 callgsubr
          -69 callgsubr
          -72 callgsubr
          289 -1678 -49 callsubr
          hintmask 00000000
          -53 callgsubr
          hintmask 00010100
          -2 vlineto
          -76 callsubr
          hvcurveto
          hintmask 00100100
          -80 callsubr
          vhcurveto
          endchar
        </CharString>
        <CharString name="P">
          202 0 118 383 121 711 115 hstem
          14 callsubr
          570 189 vstem
          108 hmoveto
          575 56 callsubr
          34 -5 29 -54 10 -126 9 -54 7 rrcurveto
          407 vlineto
          -15 97 71 -9 80 hhcurveto
          388 123 166 339 338 -168 104 -323 hvcurveto
          -597 -39 callsubr
          -1215 26 callsubr
          -59 -3 -54 -11 rrcurveto
          347 534 rmoveto
          700 vlineto
          130 2 rlineto
          393 7 47 -106 -208 vvcurveto
          -270 -65 -154 -347 20 vhcurveto
          endchar
        </CharString>
        <CharString name="Q">
          450 -449 151 258 16 1375 126 hstem
          43 callsubr
          vstem
          704 -40 rmoveto
          19 hlineto
          -175 66 49 -234 287 hhcurveto
          86 122 31 35 59 hvcurveto
          -26 97 rlineto
          -5 -26 -59 -7 -68 hhcurveto
          -151 -73 18 245 -130 hvcurveto
          377 40 146 316 392 vvcurveto
          -86 callsubr
        </CharString>
        <CharString name="R">
          259 0 -22 callsubr
          hstemhm
          14 callsubr
          530 187 hintmask 01011110
          111 hmoveto
          -26 callsubr
          hintmask 10111110
          -25 callgsubr
          hintmask 01011110
          19 callsubr
          hintmask 10111110
          -103 callgsubr
          endchar
        </CharString>
        <CharString name="Racute">
          306 0 -22 callsubr
          70 callgsubr
          316 180 9 476 45 187 hintmask 0101111110000000
          552 -104 callgsubr
          -394 -1538 rmoveto
          -26 callsubr
          hintmask 1011111110000000
          -25 callgsubr
          hintmask 0101111110000000
          19 callsubr
          hintmask 1011111110000000
          -103 callgsubr
          endchar
        </CharString>
        <CharString name="Rcaron">
          306 0 -22 callsubr
          94 332 hstemhm
          316 180 -83 593 20 187 hintmask 0101110110000000
          659 -8 callgsubr
          -255 -1802 rmoveto
          -26 callsubr
          hintmask 1011111010000000
          -25 callgsubr
          hintmask 0101111010000000
          19 callsubr
          hintmask 1011111010000000
          -103 callgsubr
          endchar
        </CharString>
        <CharString name="Rcommaaccent">
          306 -509 -21 530 -22 callsubr
          hstemhm
          316 180 168 277 85 187 hintmask 1010111110000000
          158 hmoveto
          -26 callsubr
          hintmask 1101111110000000
          -25 callgsubr
          hintmask 1010111110000000
          19 callsubr
          hintmask 1101111110000000
          -103 callgsubr
          31 -865 rmoveto
          97 -61 -22 -88 -49 -120 -47 -65 rlinecurve
          57 -40 rlineto
          82 65 138 158 149 vvcurveto
          78 -69 39 -67 -65 -59 -30 -85 4 vhcurveto
          endchar
        </CharString>
        <CharString name="S">
          101 86 callgsubr
          hstem
          149 167 573 177 vstem
          133 95 -83 callgsubr
          -12 callgsubr
        </CharString>
        <CharString name="Sacute">
          18 86 callgsubr
          61 72 callgsubr
          156 167 145 476 -48 177 hintmask 11010100
          515 -104 callgsubr
          -375 -1443 -83 callgsubr
          hintmask 00101000
          -12 callgsubr
        </CharString>
        <CharString name="T">
          148 0 124 1216 108 hstem
          38 144 352 179 vstem
          345 hmoveto
          579 -60 callgsubr
          40 callsubr
          -221 38 rlineto
          1214 343 vlineto
          20 -241 38 -5 45 0 30 7 rlinecurve
          9 76 13 154 101 vvcurveto
          -22 16 rlineto
          -1130 hlineto
          -21 -16 rlineto
          -101 12 -154 9 -76 vhcurveto
          31 -7 45 0 38 5 19 241 rcurveline
          342 -1218 hlineto
          -54 -7 -92 -23 callgsubr
        </CharString>
        <CharString name="Thorn">
          204 0 122 171 120 646 113 156 120 hstem
          279 177 568 191 vstem
          111 hmoveto
          543 hlineto
          5 9 8 -48 callgsubr
          15 26 callgsubr
          -206 34 -2 194 rlineto
          -14 97 69 -9 129 hhcurveto
          305 159 142 316 338 -189 83 -324 hvcurveto
          -246 hlineto
          2 156 54 7 97 12 48 17 rlinecurve
          -10 84 rlineto
          -525 hlineto
          -4 -44 callgsubr
          -10 callsubr
          166 13 callsubr
          -4 -72 -10 82 callsubr
          354 334 rmoveto
          627 vlineto
          178 8 rlineto
          323 7 67 -94 -212 vvcurveto
          -235 -88 -128 -289 16 vhcurveto
          endchar
        </CharString>
        <CharString name="U">
          -2 callgsubr
          46 callsubr
          757 158 vstem
          223 570 -107 callsubr
        </CharString>
        <CharString name="Uacute">
          -2 callgsubr
          90 343 46 callsubr
          209 476 72 158 vstem
          665 -104 callgsubr
          -442 -968 -107 callsubr
        </CharString>
        <CharString name="Ucircumflex">
          -2 callgsubr
          83 332 46 callsubr
          64 593 100 158 vstem
          532 -99 callgsubr
          -309 -961 -107 callsubr
        </CharString>
        <CharString name="Udieresis">
          -2 callgsubr
          142 211 46 callsubr
          59 45 callsubr
          63 158 vstem
          996 -102 callgsubr
          -349 -1020 -107 callsubr
        </CharString>
        <CharString name="Ugrave">
          -2 callgsubr
          88 345 46 callsubr
          93 472 192 158 vstem
          933 -81 callsubr
          -281 -1171 -107 callsubr
        </CharString>
        <CharString name="Uogonek">
          457 -402 127 248 124 -97 -21 1354 115 hstemhm
          239 187 273 147 164 34 138 158 hintmask 00000000
          hintmask 00111111
          239 659 rmoveto
          -449 43 -237 489 vhcurveto
          23 hlineto
          hintmask 01011111
          33 30 4 2 29 hvcurveto
          -104 -62 -83 -75 -106 85 callsubr
          28 47 vhcurveto
          -40 87 rlineto
          -7 -16 -43 -15 -30 hhcurveto
          -52 -17 27 29 77 108 76 88 75 hvcurveto
          248 88 50 246 385 vvcurveto
          605 25 callsubr
          22 4 54 11 rrcurveto
          hintmask 10111111
          54 callgsubr
          -456 hlineto
          -8 -93 56 -13 65 -2 55 -7 rlinecurve
          -603 vlineto
          -428 -16 -205 -339 -369 -30 191 373 -2 vhcurveto
          672 25 callsubr
          61 4 54 11 54 callgsubr
          -517 hlineto
          -8 -93 56 65 callsubr
          endchar
        </CharString>
        <CharString name="V">
          193 0 128 -113 -21 1334 44 -21 97 -79 -20 hstemhm
          27 1254 hintmask 10001100
          562 hmoveto
          58 -7 86 -2 69 9 416 1331 rcurveline
          31 6 40 12 19 10 rrcurveto
          hintmask 01010100
          -12 89 rlineto
          -425 hlineto
          -5 -9 -7 -17 callgsubr
          203 -33 -320 -1080 rlineto
          hintmask 10001100
          -32 -118 -18 73 rlineto
          hintmask 01100100
          -350 1127 54 7 74 10 49 14 rlinecurve
          hintmask 01010100
          -9 89 rlineto
          -447 hlineto
          -5 -9 -6 -17 callgsubr
          96 96 callgsubr
        </CharString>
        <CharString name="W">
          800 21 callsubr
          31 1836 hintmask 00000000
          hintmask 00001110
          444 hmoveto
          hintmask 01000110
          37 callsubr
          2 callgsubr
          hintmask 00001110
          -4 91 rlineto
          hintmask 00010110
          52 callgsubr
          -227 -1037 rlineto
          hintmask 00100110
          64 callgsubr
          -62 9 -49 0 -61 -16 rlinecurve
          -262 -938 50 callsubr
          rlineto
          hintmask 10000110
          28 callsubr
        </CharString>
        <CharString name="Wacute">
          16 callgsubr
          92 72 callgsubr
          43 1836 -1076 476 51 callsubr
          hintmask 0000110100000000
          850 1538 rmoveto
          hintmask 0100010100000000
          -102 callsubr
          -394 -1538 50 callgsubr
          hintmask 0000110100000000
          30 165 rlineto
          hintmask 0001010100000000
          38 -163 28 callgsubr
          rlineto
          hintmask 0010010100000000
          34 5 29 7 23 8 -5 91 rcurveline
          4 callgsubr
          rlineto
          hintmask 1000010100000000
          -62 9 -50 0 -61 -17 -262 -1004 rcurveline
          -29 -156 -23 106 rlineto
          hintmask 0000001010000000
          92 callsubr
          17 callsubr
        </CharString>
        <CharString name="Wdieresis">
          831 21 callsubr
          43 1836 hintmask 00000000
          hintmask 00001110
          1182 1590 rmoveto
          hintmask 01000110
          -99 callsubr
          hvcurveto
          hintmask 00001110
          -56 24 -48 80 vhcurveto
          hintmask 00010110
          -302 -1590 rmoveto
          37 callsubr
          rlineto
          hintmask 00100110
          2 callgsubr
          -4 91 rlineto
          52 callgsubr
          hintmask 10000110
          -227 -1037 64 callgsubr
          rlineto
          hintmask 00000000
          -62 9 -49 0 -61 -16 -262 -938 rcurveline
          50 callsubr
          28 callsubr
        </CharString>
        <CharString name="Wgrave">
          16 callgsubr
          90 345 hstemhm
          43 1836 -1180 472 51 callsubr
          hintmask 0000110100000000
          701 1741 rmoveto
          hintmask 0100010100000000
          429 -205 17 27 12 18 12 36 rlinecurve
          -357 264 -115 -90 rlineto
          -243 -1791 50 callgsubr
          30 165 rlineto
          hintmask 0000110100000000
          38 -163 rlineto
          hintmask 0001010100000000
          28 callgsubr
          34 5 29 7 23 8 rlinecurve
          hintmask 0010010100000000
          -5 91 rlineto
          4 callgsubr
          -62 9 -50 0 -61 -17 rlinecurve
          hintmask 1000010100000000
          -262 -1004 -29 -156 -23 106 92 callsubr
          rlineto
          hintmask 0000001010000000
          17 callsubr
        </CharString>
        <CharString name="X">
          283 0 98 1237 113 -86 86 hstemhm
          44 1298 hintmask 00000000
          hintmask 10110000
          52 hmoveto
          404 hlineto
          7 33 0 28 31 vvcurveto
          -156 23 362 523 rlineto
          hintmask 11010000
          352 -534 -114 -12 rlineto
          hintmask 10110000
          -5 -31 0 -28 7 -33 rrcurveto
          428 hlineto
          7 33 -2 28 -5 31 -94 12 rcurveline
          -468 671 409 560 104 22 4 25 5 39 -11 27 rlinecurve
          -397 hlineto
          -5 -32 -5 -27 3 -32 149 -22 rcurveline
          -334 -470 -323 477 141 20 rlineto
          32 0 24 -7 30 vhcurveto
          -438 hlineto
          -11 -30 2 -26 2 -30 88 -13 rcurveline
          435 -616 -435 -618 -104 -23 -7 -33 3 -28 9 -31 rlinecurve
          endchar
        </CharString>
        <CharString name="Y">
          219 -7 callgsubr
          hstemhm
          575 179 hintmask 10101000
          388 hmoveto
          -96 callsubr
          hintmask 01011000
          -66 callsubr
          hintmask 01101000
          -44 callsubr
        </CharString>
        <CharString name="Yacute">
          219 -7 callgsubr
          91 72 callgsubr
          494 476 -395 179 hintmask 01101100
          541 -104 callgsubr
          hintmask 10101010
          -153 -1538 -79 callgsubr
        </CharString>
        <CharString name="Ydieresis">
          233 -7 callgsubr
          143 211 hstemhm
          376 216 -10 179 34 216 hintmask 01101101
          904 -102 callgsubr
          hintmask 10101011
          -85 -1590 rmoveto
          -96 callsubr
          hintmask 01011011
          -66 callsubr
          hintmask 01101011
          -44 callsubr
        </CharString>
        <CharString name="Ygrave">
          233 -7 callgsubr
          89 345 hstemhm
          415 472 -305 179 hintmask 01101100
          846 -81 callsubr
          hintmask 10101010
          -22 -1741 -79 callgsubr
        </CharString>
        <CharString name="Z">
          89 25 callgsubr
          120 hstem
          66 1057 vstem
          97 hmoveto
          -63 callgsubr
        </CharString>
        <CharString name="Zacute">
          78 25 callgsubr
          120 70 callgsubr
          54 1057 -658 476 hintmask 11010000
          500 -104 callgsubr
          -415 -1538 rmoveto
          -67 callgsubr
          rlineto
          hintmask 00101000
          -2 -101 28 -138 9 -75 -43 callsubr
        </CharString>
        <CharString name="Zdotaccent">
          78 25 callgsubr
          120 140 220 hstemhm
          54 1057 -633 219 hintmask 00101000
          586 15 callsubr
          hintmask 11010000
          -501 -1588 rmoveto
          -63 callgsubr
        </CharString>
        <CharString name="a">
          -45 callsubr
          hstem
          78 172 390 165 vstem
          78 203 -91 callsubr
          -92 callgsubr
        </CharString>
        <CharString name="aacute">
          -45 callsubr
          48 callsubr
          78 172 86 413 -109 165 hintmask 11101010
          413 -96 callgsubr
          -335 -903 -100 callgsubr
          rlineto
          hintmask 00010100
          -42 callsubr
          rrcurveto
          -92 callgsubr
        </CharString>
        <CharString name="acircumflex">
          -45 callsubr
          31 callgsubr
          78 172 -79 602 -133 165 hintmask 11101010
          246 -100 callsubr
          -168 -934 -106 callsubr
          hintmask 00010100
          41 callgsubr
          -92 callgsubr
        </CharString>
        <CharString name="acute">
          -617 1466 40 hstem
          29 413 vstem
          106 -96 callgsubr
          endchar
        </CharString>
        <CharString name="acute.cap">
          -535 1538 343 hstem
          36 476 vstem
          83 -104 callgsubr
          endchar
        </CharString>
        <CharString name="adieresis">
          -45 callsubr
          hstemhm
          78 172 390 165 vstemhm
          670 -98 callsubr
          -197 -1003 -91 callsubr
          -92 callgsubr
        </CharString>
        <CharString name="ae">
          439 -27 131 -131 138 325 88 13 95 202 145 -100 102 hstemhm
          81 174 390 169 446 172 51 callsubr
          hintmask 0101011110000000
          81 223 rmoveto
          -202 -11 160 -48 113 hhcurveto
          158 142 88 74 63 hvcurveto
          -130 74 133 -32 163 hhcurveto
          200 140 81 14 18 hvcurveto
          -40 88 rlineto
          hintmask 1011101110000000
          -7 -21 -142 -38 -101 72 callsubr
          -16 137 289 hvcurveto
          618 hlineto
          318 2 -70 126 -291 hhcurveto
          -135 -106 -40 -91 -76 hvcurveto
          95 -43 -99 34 -165 hhcurveto
          -149 -158 -81 -9 -14 hvcurveto
          42 -107 rlineto
          3 8 134 49 114 hhcurveto
          172 47 -26 -174 hvcurveto
          hintmask 0101011110000000
          -107 vlineto
          -85 -4 -265 -27 -203 -38 -11 -235 rlinecurve
          hintmask 1011011110000000
          737 401 -41 callsubr
          80 108 -11 -228 6 hvcurveto
          -1005 -410 rmoveto
          hintmask 0101011110000000
          124 74 52 235 27 vhcurveto
          81 7 rlineto
          -95 9 -76 20 -59 vhcurveto
          -80 -133 -61 -26 -101 hhcurveto
          -65 -59 36 90 hvcurveto
          endchar
        </CharString>
        <CharString name="agrave">
          -45 callsubr
          62 callsubr
          78 172 -27 411 6 165 hintmask 11101010
          555 -61 callsubr
          -145 -1260 -91 callsubr
          hintmask 00010100
          -92 callgsubr
        </CharString>
        <CharString name="ampersand">
          294 -29 131 737 -20 27 20 11 80 387 133 hstemhm
          97 180 -43 170 hintmask 11111100
          97 324 rmoveto
          -243 7 149 -110 257 hhcurveto
          162 122 52 95 92 hvcurveto
          18 19 98 -91 90 -71 67 -36 rlinecurve
          46 -27 97 -30 55 30 23 90 rcurveline
          -31 12 -30 13 -33 18 -78 42 -102 80 -107 100 84 142 57 184 53 253 rrcurveto
          5 hlineto
          36 6 24 4 7 2 rlineto
          2 2 1 2 hhcurveto
          14 3 5 2 5 1 5 1 rlinecurve
          10 4 rlineto
          1 1 1 1 2 hvcurveto
          -10 85 rlineto
          -488 hlineto
          -1 -1 0 0 -1 vvcurveto
          -2 -3 -3 -7 -4 -15 rlineto
          -1 -2 0 -1 -2 -1 -1 -1 -1 vvcurveto
          -2 0 -2 -1 -3 vhcurveto
          -10 vlineto
          -21 vlineto
          -1 1 -2 -1 vvcurveto
          -1 0 -1 1 -1 vhcurveto
          217 -28 -15 -103 -30 -207 -76 -176 rlinecurve
          hintmask 11111010
          -251 257 -246 338 208 vvcurveto
          79 31 99 205 73 95 -18 -36 64 vhcurveto
          48 137 rlineto
          27 -41 -119 23 -115 hhcurveto
          -333 -78 -175 -156 -101 54 -130 84 -138 hvcurveto
          hintmask 11111100
          -128 -92 -153 -143 6 -218 rrcurveto
          180 50 rmoveto
          5 123 74 86 85 87 109 -158 137 -160 132 -133 rrcurveto
          -66 -54 -101 -51 -125 hhcurveto
          -223 -44 146 126 5 hvcurveto
          endchar
        </CharString>
        <CharString name="aogonek">
          -29 57 callsubr
          269 135 -107 -21 462 89 312 138 hstemhm
          95 callgsubr
          390 165 -148 147 hintmask 10111101
          97 203 rmoveto
          hintmask 11011101
          -88 callgsubr
          22 26 4 5 27 vhcurveto
          -103 -71 -84 -82 -114 vvcurveto
          -97 75 -41 72 82 69 34 27 47 vhcurveto
          -40 88 rlineto
          -7 -18 -41 85 callgsubr
          104 88 90 92 hvcurveto
          0 0 1 1 vhcurveto
          -7 83 rlineto
          hintmask 11011110
          -84 callsubr
          -77 callsubr
          41 callgsubr
          -92 callgsubr
        </CharString>
        <CharString name="aring">
          -45 callsubr
          92 46 callgsubr
          hstemhm
          78 172 28 45 callgsubr
          -79 165 hintmask 1110010010000000
          500 1071 -91 callgsubr
          -445 -980 -105 callgsubr
          hintmask 0001101100000000
          -77 callsubr
          41 callgsubr
          -92 callgsubr
        </CharString>
        <CharString name="asciicircum">
          84 726 720 hstem
          118 936 vstem
          201 726 rmoveto
          374 521 390 -519 27 2 48 34 14 23 rlinecurve
          -423 659 rlineto
          -106 hlineto
          -407 -659 17 -31 28 -21 38 -9 rlinecurve
          endchar
        </CharString>
        <CharString name="asciitilde">
          -86 418 146 -63 144 hstemhm
          73 856 hintmask 00000000
          hintmask 01100000
          120 435 rmoveto
          47 67 43 19 72 135 102 -83 135 hhcurveto
          hintmask 10100000
          82 114 38 156 59 hvcurveto
          -64 40 rlineto
          -52 -55 -44 -36 -78 -128 -66 81 -170 hhcurveto
          hintmask 01100000
          -109 -109 -88 -70 -33 hvcurveto
          endchar
        </CharString>
        <CharString name="asterisk">
          -121 834 -20 361 56 31 -20 145 -20 207 30 hstem
          489 38 vstem
          295 834 rmoveto
          36 -33 97 -12 32 7 -6 121 6 111 11 113 66 -97 68 -97 87 -87 48 15 52 66 18 40 -63 25 -130 95 -94 69 124 7 147 19 90 26 7 47 -16 75 -41 43 rrcurveto
          -78 -50 -118 -68 -111 -40 57 102 40 117 26 126 -41 25 -65 13 -59 -13 9 -113 -7 -108 -7 -116 -65 107 -75 90 -94 86 -43 -21 -54 -58 -14 -41 99 -47 102 -79 90 -68 rrcurveto
          -117 -2 -129 -9 -114 -31 -7 -52 22 -73 30 -40 81 49 99 57 127 45 -52 -124 -47 -110 -24 -107 rrcurveto
          endchar
        </CharString>
        <CharString name="at">
          985 -430 132 289 142 701 116 362 136 hstem
          170 159 329 165 968 152 vstem
          194 584 rmoveto
          -97 -764 191 -246 572 -4 187 -3 200 36 81 38 -11 129 rcurveline
          -13 -31 -197 -55 -203 hhcurveto
          -529 -78 258 619 73 hvcurveto
          650 78 400 83 354 hhcurveto
          570 77 -101 -573 -54 hvcurveto
          -38 -406 -174 -85 -180 -39 92 814 rcurveline
          -106 12 -43 -97 -85 80 -129 28 -102 5 rlinecurve
          -277 15 -52 -315 -19 -196 -37 -391 129 -75 144 3 156 2 140 172 78 201 rrcurveto
          2 hlineto
          -45 -288 rlineto
          -60 -9 45 -20 47 hhcurveto
          234 2 342 156 43 482 rrcurveto
          771 69 -286 39 -475 hhcurveto
          -574 -388 -186 -678 -85 hvcurveto
          728 -451 rmoveto
          -95 -3 -17 78 22 246 rrcurveto
          189 14 50 191 139 hhcurveto
          43 124 -31 -47 108 hvcurveto
          -29 -238 rlineto
          -199 -106 -156 -186 -97 hhcurveto
          endchar
        </CharString>
        <CharString name="atilde">
          -45 callsubr
          159 -11 callsubr
          78 172 -146 742 -206 165 hintmask 11100101
          150 -38 callsubr
          -26 -1008 -106 callsubr
          hintmask 00000000
          34 callsubr
          rlineto
          hintmask 00001010
          -42 callsubr
          rrcurveto
          -71 callsubr
          hintmask 00010010
          -71 callgsubr
        </CharString>
        <CharString name="b">
          49 -29 131 -83 -21 855 126 491 140 hstemhm
          173 167 513 180 hintmask 01111100
          158 -2 rmoveto
          hintmask 10111100
          -16 24 43 -11 39 hhcurveto
          20 43 21 49 9 50 rrcurveto
          -56 67 99 -86 154 hhcurveto
          135 250 43 457 14 hvcurveto
          311 9 -73 197 -288 hhcurveto
          -180 -97 -77 -39 -64 hvcurveto
          637 vlineto
          41 -4 69 80 callsubr
          -133 -38 -14 -32 vhcurveto
          11 -88 rlineto
          178 -999 hlineto
          hintmask 01111100
          -157 0 -179 -15 -137 vhcurveto
          176 225 rmoveto
          2 54 4 47 23 vvcurveto
          413 59 callgsubr
          23 -172 -208 -4 hvcurveto
          hintmask 10111100
          -268 -7 -75 -103 -159 hhcurveto
          -102 -115 68 53 -61 hvcurveto
          endchar
        </CharString>
        <CharString name="backslash">
          84 callsubr
          5 812 vstem
          700 -381 rmoveto
          117 38 -692 1981 -38 -7 -43 -10 -39 -24 rlinecurve
          endchar
        </CharString>
        <CharString name="bar">
          39 callgsubr
          -437 rmoveto
          133 2193 -133 hlineto
          endchar
        </CharString>
        <CharString name="braceleft">
          -223 1762 21 hstem
          381 154 vstem
          381 -188 rmoveto
          -121 31 -154 333 -59 vhcurveto
          38 78 -158 92 rlineto
          -66 38 -24 36 92 vvcurveto
          548 vlineto
          104 -41 61 -63 34 vhcurveto
          -151 75 155 83 rlineto
          74 40 26 57 120 vvcurveto
          516 vlineto
          92 26 30 64 43 vhcurveto
          153 83 -33 83 rlineto
          -333 -60 -31 -154 -120 vvcurveto
          -539 vlineto
          -33 -5 -30 -28 -17 vhcurveto
          -239 -140 rlineto
          -99 vlineto
          220 -125 rlineto
          36 -22 16 -11 -48 vvcurveto
          endchar
        </CharString>
        <CharString name="braceright">
          -209 -502 -21 hstem
          340 154 vstem
          340 -192 rmoveto
          -92 -26 -30 -64 -43 vhcurveto
          -153 -83 33 -83 rlineto
          333 60 31 154 120 vvcurveto
          539 vlineto
          33 5 30 28 17 vhcurveto
          239 140 rlineto
          99 vlineto
          -220 125 rlineto
          -36 22 -16 11 48 vvcurveto
          573 vlineto
          121 -31 154 -333 59 vhcurveto
          -38 -78 158 -92 rlineto
          66 -38 24 -36 -92 vvcurveto
          -548 vlineto
          -104 41 -61 63 -34 vhcurveto
          151 -75 -155 -83 rlineto
          -74 -40 -26 -57 -120 vvcurveto
          endchar
        </CharString>
        <CharString name="bracketleft">
          -474 84 callgsubr
          182 149 vstem
          331 -364 rmoveto
          2006 vlineto
          54 8 140 5 54 9 5 28 0 36 -5 28 rrcurveto
          -397 -2234 397 56 callsubr
          36 -5 28 -54 9 -140 4 -54 8 rrcurveto
          endchar
        </CharString>
        <CharString name="bracketright">
          -459 84 callgsubr
          302 149 vstem
          54 -385 rmoveto
          -4 -28 0 -36 4 -29 rrcurveto
          397 2234 -397 hlineto
          -4 -28 0 -36 4 -28 54 -9 140 -5 54 -8 rrcurveto
          -2006 vlineto
          -54 -8 -140 -4 -54 -9 rrcurveto
          endchar
        </CharString>
        <CharString name="brokenbar">
          39 callgsubr
          834 rmoveto
          133 922 -133 hlineto
          -2193 vmoveto
          133 952 -133 hlineto
          endchar
        </CharString>
        <CharString name="bullet">
          -296 354 343 hstem
          225 343 vstem
          395 354 rmoveto
          130 43 74 97 111 -43 61 -130 -131 -39 -80 -92 -97 39 -74 131 hvcurveto
          endchar
        </CharString>
        <CharString name="c">
          -154 55 callgsubr
          hstem
          95 177 vstem
          95 465 -64 callgsubr
        </CharString>
        <CharString name="cacute">
          -126 55 callgsubr
          48 callsubr
          102 177 108 413 hintmask 11010000
          464 -96 callgsubr
          -362 -641 rmoveto
          -429 207 -65 221 190 93 callsubr
          22 vhcurveto
          -42 90 rlineto
          -45 callgsubr
          hvcurveto
          hintmask 00101000
          -78 callgsubr
          hvcurveto
          endchar
        </CharString>
        <CharString name="caron.cap">
          -429 1542 332 hstem
          43 593 vstem
          289 -8 callgsubr
          endchar
        </CharString>
        <CharString name="ccedilla">
          -154 -236 128 79 135 -80 -21 865 109 hstemhm
          95 177 306 147 hintmask 10111100
          420 -141 rmoveto
          -1 vlineto
          -18 -58 -65 callsubr
          35 85 178 7 127 91 21 15 rlinecurve
          -42 90 rlineto
          hintmask 11011100
          -81 callgsubr
          -386 167 -91 194 -15 hvcurveto
          endchar
        </CharString>
        <CharString name="cdotaccent">
          -157 55 callgsubr
          30 callgsubr
          95 177 139 220 hintmask 00000000
          hintmask 00010100
          520 92 callgsubr
          hintmask 00100100
          87 callsubr
          -85 -24 -50 -61 hvcurveto
          hintmask 00010100
          -61 24 -48 85 vhcurveto
          hintmask 11001000
          -425 -707 -64 callgsubr
        </CharString>
        <CharString name="cedilla">
          -693 -241 128 134 -21 hstem
          212 147 vstem
          104 12 rmoveto
          -50 -158 rlineto
          -1 vlineto
          -18 -58 -65 callsubr
          49 118 rlineto
          endchar
        </CharString>
        <CharString name="cent">
          -145 -175 1378 -1182 135 764 109 hstemhm
          104 177 199 92 hintmask 10011000
          480 22 rmoveto
          -192 vlineto
          12 -5 54 -3 26 8 rrcurveto
          192 vlineto
          169 13 119 86 21 14 -42 90 rcurveline
          hintmask 01111000
          6 callsubr
          -12 760 hlineto
          41 -4 51 -9 44 -21 18 -175 rcurveline
          -33 callgsubr
          -92 40 -110 12 -85 2 rrcurveto
          170 vlineto
          -26 7 -43 0 -23 -7 rrcurveto
          -173 vlineto
          -251 -26 -125 -192 -292 vvcurveto
          -395 175 -87 201 -11 vhcurveto
          142 vmoveto
          -148 29 -51 103 236 vvcurveto
          271 71 103 128 13 vhcurveto
          endchar
        </CharString>
        <CharString name="circumflex">
          -429 1137 371 hstem
          29 602 vstem
          104 -100 callsubr
          endchar
        </CharString>
        <CharString name="circumflex.cap">
          -429 1531 332 hstem
          45 593 vstem
          104 -99 callgsubr
          endchar
        </CharString>
        <CharString name="colon">
          -628 -29 232 516 231 hstemhm
          115 230 hintmask 00000000
          hintmask 11100000
          232 719 rmoveto
          87 26 50 65 64 -26 52 -87 74 callsubr
          -117 -631 rmoveto
          -67 27 -50 90 87 26 50 67 63 -26 52 -87 -90 -27 -52 -63 vhcurveto
          endchar
        </CharString>
        <CharString name="comma">
          -603 -350 564 hstem
          40 339 vstem
          111 85 rmoveto
          85 -56 -23 -114 -85 -161 -48 -63 rlinecurve
          62 -41 83 64 187 229 7 154 rlinecurve
          2 56 -20 32 -47 16 -39 14 -45 2 -29 -7 -48 -12 -33 -38 -9 -75 rrcurveto
          endchar
        </CharString>
        <CharString name="commaaccent">
          -779 -509 -21 hstem
          14 279 vstem
          158 -115 rmoveto
          -66 -59 -32 -85 5 hvcurveto
          -36 callsubr
          vhcurveto
          endchar
        </CharString>
        <CharString name="copyright">
          500 -29 114 201 113 607 93 205 114 hstem
          70 122 259 144 799 124 vstem
          -59 callgsubr
          259 -10 rmoveto
          -347 169 -52 174 158 128 80 13 16 vhcurveto
          -32 75 rlineto
          -3 -8 -120 -52 -99 hhcurveto
          -180 -62 72 226 234 66 75 117 18 95 -2 -37 68 hvcurveto
          10 -137 rlineto
          -3 28 24 0 28 hhcurveto
          15 43 23 113 -7 61 rrcurveto
          52 -106 -95 3 -76 hhcurveto
          -233 -119 -161 -253 hvcurveto
          endchar
        </CharString>
        <CharString name="currency">
          -107 219 115 396 114 hstem
          180 113 386 115 vstem
          187 158 rmoveto
          121 117 rlineto
          -35 50 61 -21 68 hhcurveto
          67 62 21 37 50 hvcurveto
          128 -121 78 76 -128 128 rlineto
          31 49 19 59 64 vvcurveto
          65 -20 61 -33 50 vhcurveto
          119 124 -14 23 -41 41 -23 9 rlinecurve
          -120 -117 rlineto
          35 -50 -60 21 -65 hhcurveto
          -66 -60 -20 -34 -49 hvcurveto
          -118 112 -31 -20 -23 -19 -25 -38 rlinecurve
          116 -119 rlineto
          -33 -50 -18 -60 -64 vvcurveto
          -65 18 -61 32 -49 vhcurveto
          -119 -125 rlineto
          376 102 rmoveto
          -115 -79 87 111 111 75 87 119 115 77 -87 -111 -111 -77 -87 -115 hvcurveto
          endchar
        </CharString>
        <CharString name="d">
          105 -29 133 756 119 491 17 hstem
          95 177 522 168 vstem
          433 -29 rmoveto
          129 168 81 63 75 hvcurveto
          3 -34 hlineto
          -41 6 -69 110 75 131 38 14 33 vhcurveto
          -8 83 rlineto
          -193 1394 hlineto
          41 -3 -2 67 -111 hhcurveto
          -75 -147 -39 -13 -33 hvcurveto
          37 callgsubr
          192 -534 hlineto
          33 -81 -96 10 -57 hhcurveto
          -293 -172 -159 -376 -257 49 -216 289 hvcurveto
          45 133 rmoveto
          -171 -35 130 208 246 44 172 282 81 75 -14 -9 40 hvcurveto
          -627 vlineto
          -54 -83 -132 -52 -101 hhcurveto
          endchar
        </CharString>
        <CharString name="degree">
          -434 865 123 338 120 hstem
          33 125 336 126 vstem
          327 865 rmoveto
          162 131 127 163 164 -117 127 -176 -164 -130 -127 -164 -163 130 -127 164 hvcurveto
          123 vmoveto
          -100 -69 71 96 95 67 76 102 108 59 -76 -95 -96 -68 -71 -99 hvcurveto
          endchar
        </CharString>
        <CharString name="dieresis">
          -459 -5 callsubr
          210 hstemhm
          11 66 callgsubr
          hintmask 00000000
          hintmask 11100000
          510 -98 callsubr
          endchar
        </CharString>
        <CharString name="dieresis.cap">
          -459 1590 211 hstemhm
          -3 45 callsubr
          hintmask 00000000
          hintmask 11100000
          525 -102 callgsubr
          endchar
        </CharString>
        <CharString name="divide">
          -29 128 201 149 115 156 201 hstemhm
          118 822 -507 201 hintmask 00000000
          hintmask 11010000
          532 749 rmoveto
          73 29 47 52 69 -29 33 -73 -74 -25 -35 -67 -52 25 -47 74 hvcurveto
          -414 -271 rmoveto
          818 hlineto
          5 27 0 59 -5 29 rrcurveto
          -814 hlineto
          hintmask 11101000
          311 -366 rmoveto
          -64 25 -35 74 73 29 35 64 57 -29 45 -73 -74 -25 -50 -52 vhcurveto
          endchar
        </CharString>
        <CharString name="dollar">
          -141 -29 107 869 102 hstemhm
          151 151 140 92 141 141 -139 169 hintmask 11110100
          115 52 rmoveto
          66 -36 135 -36 126 -8 rrcurveto
          -139 vlineto
          12 -6 54 -2 26 8 rrcurveto
          141 vlineto
          115 13 197 62 239 vvcurveto
          100 -45 75 -88 47 vhcurveto
          -69 37 -59 26 -51 21 rrcurveto
          349 vlineto
          50 -6 55 -14 30 -18 12 -165 rcurveline
          90 -5 rlineto
          hintmask 11111000
          39 106 4 126 2 45 -111 29 -107 6 -64 2 rrcurveto
          147 vlineto
          -26 6 -43 0 -23 -6 rrcurveto
          -150 vlineto
          -204 -19 -87 -121 -150 vvcurveto
          -118 47 -81 107 -42 vhcurveto
          35 -15 51 -21 51 -23 rrcurveto
          -376 vlineto
          -76 8 -40 24 -57 30 -2 40 -3 71 -14 52 -97 -3 rcurveline
          242 350 rmoveto
          -79 38 -14 43 54 vvcurveto
          84 49 61 91 12 vhcurveto
          -313 vlineto
          -17 7 -15 7 -15 7 rrcurveto
          139 -571 rmoveto
          332 vlineto
          30 -14 27 -14 21 -11 60 -31 11 -68 -9 -56 -13 -72 -53 -52 -74 -14 rrcurveto
          endchar
        </CharString>
        <CharString name="dotlessi">
          10 callsubr
          hstem
          262 168 vstem
          106 hmoveto
          -95 callgsubr
        </CharString>
        <CharString name="dotlessj">
          -540 841 138 hstem
          70 callsubr
          vstem
          237 27 -16 callsubr
          53 callgsubr
          12 -86 rlineto
          171 hlineto
          endchar
        </CharString>
        <CharString name="e">
          -105 -17 callsubr
          hstem
          95 callgsubr
          448 172 vstem
          97 430 -89 callgsubr
        </CharString>
        <CharString name="eacute">
          -105 -17 callsubr
          48 callsubr
          95 callgsubr
          58 413 -23 172 hintmask 11101010
          404 -96 callgsubr
          -307 -676 -15 callgsubr
          hintmask 00010100
          35 callgsubr
          -103 callsubr
        </CharString>
        <CharString name="ecircumflex">
          -105 -17 callsubr
          31 callgsubr
          95 callgsubr
          -73 602 -81 172 hintmask 11101010
          271 -100 callsubr
          -174 -707 -24 callgsubr
          hintmask 00010100
          -101 callgsubr
        </CharString>
        <CharString name="edieresis">
          -105 -17 callsubr
          hstemhm
          95 callgsubr
          448 172 vstemhm
          685 -98 callsubr
          -193 -776 -89 callgsubr
        </CharString>
        <CharString name="edotaccent">
          -138 -17 callsubr
          30 callgsubr
          95 callgsubr
          99 221 128 172 hintmask 00000000
          hintmask 00001010
          478 92 callgsubr
          hintmask 00010010
          88 callgsubr
          -86 -24 -50 -61 hvcurveto
          hintmask 00001010
          -61 24 -48 86 vhcurveto
          hintmask 11100101
          -381 -742 -89 callgsubr
        </CharString>
        <CharString name="egrave">
          -105 -17 callsubr
          62 callsubr
          95 callgsubr
          -37 411 74 172 hintmask 11101010
          564 -61 callsubr
          -135 -1033 -15 callgsubr
          35 callgsubr
          hintmask 00010100
          -103 callsubr
        </CharString>
        <CharString name="eight">
          33 -31 104 1052 106 hstemhm
          128 172 -156 156 444 161 -89 170 hintmask 00000000
          hintmask 11010100
          128 275 rmoveto
          hintmask 11011000
          -216 158 -90 241 260 199 99 251 199 -142 57 -172 75 vhcurveto
          217 110 16 117 92 vvcurveto
          208 -181 54 -185 vhcurveto
          hintmask 11100100
          -34 hlineto
          -186 -14 -175 -85 -227 vvcurveto
          -132 68 -92 183 -74 vhcurveto
          hintmask 11010100
          -145 -63 -122 -126 -143 vvcurveto
          hintmask 11100100
          323 472 rmoveto
          -97 45 -54 54 85 vvcurveto
          140 111 54 116 vhcurveto
          14 hlineto
          113 90 -33 -133 -129 -63 -55 -109 -83 hvcurveto
          -272 -399 rmoveto
          64 9 103 183 112 vhcurveto
          hintmask 11011000
          177 -85 rlineto
          109 -50 38 -61 -76 vvcurveto
          -160 -97 -67 -147 vhcurveto
          -33 hlineto
          -192 -47 90 130 hvcurveto
          endchar
        </CharString>
        <CharString name="ellipsis">
          263 -29 225 hstem
          126 224 218 226 218 224 cntrmask 01110000
          1012 85 rmoveto
          -67 25 -47 86 87 callgsubr
          -86 -25 -49 -62 vhcurveto
          -444 hmoveto
          -67 25 -47 88 87 callgsubr
          -88 -25 -49 -62 vhcurveto
          -442 hmoveto
          -67 25 -47 88 85 26 47 67 62 -26 49 -85 -88 -25 -49 -62 vhcurveto
          endchar
        </CharString>
        <CharString name="emdash">
          450 90 callsubr
          95 1343 62 callgsubr
          1339 71 callgsubr
          66 -5 29 rrcurveto
          -1335 hlineto
          endchar
        </CharString>
        <CharString name="endash">
          -235 499 118 hstem
          95 658 62 callgsubr
          654 71 callgsubr
          62 -5 28 rrcurveto
          -650 hlineto
          endchar
        </CharString>
        <CharString name="eogonek">
          -71 57 callsubr
          269 128 -95 -21 544 102 248 102 hstemhm
          107 172 213 146 89 172 hintmask 10111111
          107 430 rmoveto
          hintmask 11011111
          -28 callgsubr
          55 51 7 9 44 hvcurveto
          -4 -3 32 callsubr
          76 -41 70 83 68 34 27 48 vhcurveto
          -41 88 -20 callgsubr
          82 99 83 86 77 hvcurveto
          68 57 11 9 -10 22 -25 63 rlineto
          -101 callgsubr
        </CharString>
        <CharString name="equal">
          -46 324 123 182 122 hstem
          118 805 vstem
          118 629 rmoveto
          802 69 callsubr
          67 -4 27 rrcurveto
          -798 hlineto
          -4 -427 rmoveto
          802 69 callsubr
          66 -4 29 rrcurveto
          -798 hlineto
          endchar
        </CharString>
        <CharString name="eth">
          -29 -29 114 756 128 hstem
          99 178 510 167 vstem
          99 440 rmoveto
          -284 76 -185 285 vhcurveto
          97 hlineto
          313 84 293 365 219 -47 329 -177 178 hvcurveto
          229 145 -12 36 -38 57 -25 6 rlinecurve
          -237 -162 -110 99 -133 50 -163 7 rlinecurve
          -14 -21 -4 -22 -42 vvcurveto
          117 -29 102 -49 85 -73 -222 -142 rcurveline
          17 -33 21 -29 29 -21 230 142 rcurveline
          29 -29 43 -66 35 -80 26 -62 16 -72 13 -74 rrcurveto
          40 -55 -97 38 -100 hhcurveto
          -146 -267 -67 -422 94 callsubr
          -29 rmoveto
          29 vlineto
          262 91 99 152 85 94 -21 -38 74 vhcurveto
          14 -71 0 -106 -113 vvcurveto
          -128 -9 -139 -69 -76 vhcurveto
          -47 -40 -64 -17 -82 hhcurveto
          -211 -35 172 194 hvcurveto
          endchar
        </CharString>
        <CharString name="exclam">
          -504 -29 230 1247 7 hstemhm
          178 228 -183 134 hintmask 00000000
          hintmask 01010000
          232 376 rmoveto
          40 -8 37 0 41 8 16 406 rcurveline
          10 220 9 229 3 217 -54 8 -79 3 -63 -11 4 -219 9 -223 10 -221 rrcurveto
          hintmask 11100000
          -37 -700 rmoveto
          -67 23 -47 90 90 25 47 67 66 -25 79 callsubr
        </CharString>
        <CharString name="exclamdown">
          -504 -510 9 1250 230 hstemhm
          178 228 -183 139 hintmask 00000000
          hintmask 10010000
          293 749 rmoveto
          90 23 50 66 66 -23 48 -90 -90 -25 -48 -66 -66 25 -50 90 hvcurveto
          -78 -584 rmoveto
          hintmask 11100000
          -10 -219 -9 -230 -2 -217 54 -11 83 -3 64 14 -5 219 -9 223 -9 222 -18 409 rcurveline
          -40 7 -42 0 -40 -7 rrcurveto
          endchar
        </CharString>
        <CharString name="f">
          -353 80 callgsubr
          735 104 536 122 hstem
          70 callsubr
          vstem
          85 hmoveto
          562 56 callgsubr
          -3 callsubr
          -253 23 rlineto
          735 286 86 callsubr
          -286 336 hlineto
          148 17 52 87 81 130 -61 -31 52 vhcurveto
          73 135 rlineto
          66 -97 -95 13 -66 hhcurveto
          -210 -139 -112 -274 hvcurveto
          -272 vlineto
          -145 -16 -7 -34 -2 -21 5 -33 rlinecurve
          149 -735 hlineto
          77 callsubr
        </CharString>
        <CharString name="ff">
          306 80 callgsubr
          742 97 516 129 -118 131 hstemhm
          230 167 463 34 callgsubr
          hintmask 11011100
          88 hmoveto
          521 29 callgsubr
          rrcurveto
          hintmask 11101100
          -65 83 callgsubr
          463 -742 vlineto
          67 callsubr
          8 -88 rcurveline
          522 hlineto
          4 31 0 26 -4 31 -66 83 callgsubr
          298 vlineto
          5 36 0 26 -5 35 rrcurveto
          -298 236 hlineto
          239 50 52 130 vhcurveto
          106 -2 100 -43 7 -5 61 133 rcurveline
          33 -68 -67 15 -97 hhcurveto
          -118 -88 -39 -58 -63 hvcurveto
          42 -85 -147 42 -129 hhcurveto
          -275 -115 -203 -215 hvcurveto
          -227 vlineto
          -145 -16 -7 -34 -2 -14 5 -33 rlinecurve
          81 callgsubr
          hintmask 11011100
          -742 vlineto
          67 callsubr
          rrcurveto
          316 862 rmoveto
          hintmask 11101100
          225 vlineto
          239 63 52 160 113 104 -52 -36 56 vhcurveto
          -23 -59 -10 -65 -65 vvcurveto
          -239 vlineto
          endchar
        </CharString>
        <CharString name="fi">
          134 0 106 -106 111 742 97 527 131 hstemhm
          217 168 445 68 callsubr
          hintmask 01111100
          76 hmoveto
          508 29 callgsubr
          -66 11 -53 7 -80 5 rrcurveto
          742 445 -747 vlineto
          -41 -4 -68 -7 -57 -10 8 -85 rcurveline
          481 hlineto
          6 29 0 28 -6 28 -54 10 -48 4 -54 7 rrcurveto
          818 vlineto
          -25 26 rlineto
          -587 hlineto
          hintmask 10111100
          236 vlineto
          239 64 52 160 vhcurveto
          hintmask 01111100
          117 134 -66 -35 57 hvcurveto
          69 135 rlineto
          hintmask 10111100
          27 -29 -165 70 -158 hhcurveto
          -275 -142 -192 -261 hvcurveto
          -205 vlineto
          -144 -16 -7 -34 -3 -14 5 -33 rlinecurve
          149 -742 hlineto
          79 callgsubr
        </CharString>
        <CharString name="five">
          -171 -239 88 600 121 340 127 hstemhm
          609 183 -48 8 hintmask 00000000
          hintmask 11101000
          104 39 callsubr
          22 hlineto
          hintmask 11110000
          349 310 113 376 219 -120 101 -201 -36 -63 -2 -15 -79 hvcurveto
          29 360 rlineto
          hintmask 11101000
          422 -6 10 38 0 72 -5 32 rlinecurve
          -562 -23 -34 -582 17 -11 rlineto
          14 116 48 2 40 hhcurveto
          hintmask 11110000
          172 61 -64 -142 2 hvcurveto
          3 -123 -35 -91 -88 -69 rrcurveto
          hintmask 11101000
          -75 -92 -172 -36 -121 hhcurveto
          endchar
        </CharString>
        <CharString name="fl">
          222 0 108 -108 111 735 104 534 124 hstemhm
          217 168 542 68 callsubr
          hintmask 10111100
          76 hmoveto
          569 29 callgsubr
          -66 11 -114 7 -80 5 rrcurveto
          735 298 86 callsubr
          -298 hlineto
          hintmask 01111100
          236 vlineto
          239 21 59 248 5 175 -9 -54 93 vhcurveto
          -1313 vlineto
          -55 -6 -67 -3 -54 -11 7 -88 rcurveline
          494 hlineto
          6 29 0 30 -6 29 -54 9 -50 5 -54 6 rrcurveto
          1414 vlineto
          57 -102 -142 29 -189 hhcurveto
          -314 -130 -204 -215 hvcurveto
          -239 vlineto
          hintmask 10111100
          -144 -16 -7 -34 -3 -21 5 -33 rlinecurve
          hintmask 01111100
          149 -735 hlineto
          hintmask 10111100
          79 callgsubr
        </CharString>
        <CharString name="foundryicon">
          1440 -418 168 92 300 -81 59 433 33 501 54 -54 293 0 -20 hstemhm
          102 186 -123 207 972 45 0 34 868 113 hintmask 1101101101010000
          102 210 rmoveto
          -347 309 -281 347 225 232 23 194 226 vhcurveto
          41 48 54 2 43 132 93 -117 113 hhcurveto
          293 187 505 266 546 -369 104 -427 hvcurveto
          -95 -99 -5 -104 hhcurveto
          -31 hlineto
          -289 -81 239 -255 hhcurveto
          hintmask 1011101011010000
          -224 -265 -175 -226 -174 117 -61 -10 -155 hvcurveto
          hintmask 1011101101010000
          -10 -145 -160 -7 -227 vvcurveto
          186 13 rmoveto
          39 5 36 12 40 vhcurveto
          42 14 rlineto
          -177 97 180 -114 203 hhcurveto
          242 214 149 270 14 0 18 -4 18 hvcurveto
          -41 -18 rlineto
          -293 -18 -199 -99 -189 hhcurveto
          hintmask 1011010011010000
          -268 -192 211 246 319 280 191 286 187 215 -70 -197 4 hvcurveto
          -4 vlineto
          -126 -94 -104 -154 -106 -83 93 101 116 52 73 81 71 vhcurveto
          4 -7 -43 12 -11 hhcurveto
          -180 -206 -24 -290 -253 vvcurveto
          -61 3 -54 11 -25 vhcurveto
          36 -2 16 54 31 185 17 133 rlinecurve
          -32 23 -13 29 0 vvcurveto
          16 28 rlineto
          -40 55 102 -24 106 hhcurveto
          73 69 11 27 54 hvcurveto
          50 -95 20 -97 -99 vvcurveto
          -282 -196 -268 -356 vhcurveto
          hintmask 1101101100110000
          -293 -256 180 293 hvcurveto
          1135 -81 rmoveto
          54 588 -33 19 -35 24 -20 30 rlinecurve
          5 13 135 4 144 24 120 38 rlinecurve
          34 -36 -106 -282 47 -27 16 94 38 109 47 54 rlinecurve
          59 55 65 31 81 hhcurveto
          145 76 -106 -124 -158 -108 -146 -167 hvcurveto
          -113 7 -52 69 75 vvcurveto
          69 42 80 73 45 vhcurveto
          -35 47 -80 -59 -29 -90 -18 -88 rlinecurve
          -31 -131 -5 -166 -7 -66 rrcurveto
          endchar
        </CharString>
        <CharString name="four">
          -3 76 114 -114 122 hstemhm
          652 171 hintmask 00000000
          hintmask 10100000
          115 76 rmoveto
          537 -286 hlineto
          27 -5 108 -2 36 7 rrcurveto
          286 144 vlineto
          5 21 2 78 -7 26 -144 -5 rcurveline
          421 vlineto
          -22 21 -149 -36 rlineto
          hintmask 01100000
          -406 vlineto
          -437 -11 189 284 166 244 217 289 rlinecurve
          -38 52 -70 38 -45 2 -201 -300 -154 -255 -213 -364 rrcurveto
          endchar
        </CharString>
        <CharString name="g">
          -79 27 callsubr
          hstemhm
          63 169 456 167 -41 169 hintmask 11110101
          291 -14 -31 callsubr
          hintmask 11110110
          -5 callgsubr
          hintmask 11101110
          -67 callsubr
          hintmask 11110101
          4 callsubr
        </CharString>
        <CharString name="gdotaccent">
          -69 27 callsubr
          30 callgsubr
          77 169 126 219 111 167 -41 169 hintmask 1111010110100000
          480 92 callgsubr
          88 callgsubr
          -85 -23 -50 -61 -61 23 -48 85 hvcurveto
          -175 -1186 -31 callsubr
          hintmask 1111001111000000
          -5 callgsubr
          hintmask 1110101111000000
          -67 callsubr
          hintmask 1111001110100000
          4 callsubr
        </CharString>
        <CharString name="germandbls">
          191 -29 107 -78 111 1378 119 hstemhm
          70 callsubr
          175 154 101 175 56 164 hintmask 01111110
          85 hmoveto
          291 hlineto
          16 12 18 18 hvcurveto
          1155 vlineto
          239 29 59 108 131 162 9 -215 vhcurveto
          -187 -255 -110 -239 vvcurveto
          5 -123 50 -76 148 -77 213 -112 rcurveline
          69 -35 9 -60 -14 -68 rrcurveto
          hintmask 10111110
          -92 -19 -75 -26 -58 hhcurveto
          -93 -63 30 34 -52 hvcurveto
          -2 40 -2 71 -14 52 -97 -3 rcurveline
          -16 -104 -11 -58 -11 -88 rrcurveto
          -40 74 113 -41 137 hhcurveto
          97 262 6 276 99 -18 81 -115 59 hvcurveto
          -271 142 rlineto
          -78 40 -14 32 54 vvcurveto
          22 2 19 7 17 vhcurveto
          45 125 222 156 189 vvcurveto
          300 -229 20 -185 -238 -120 -145 -274 vhcurveto
          -239 vlineto
          -159 -16 -8 -34 -2 -21 5 -33 rlinecurve
          164 hlineto
          hintmask 01111110
          -735 vlineto
          hintmask 10111110
          77 callsubr
        </CharString>
        <CharString name="grave">
          -619 1106 418 hstem
          29 411 vstem
          361 -61 callsubr
          endchar
        </CharString>
        <CharString name="grave.cap">
          -563 1536 345 hstem
          27 472 vstem
          458 -81 callsubr
          endchar
        </CharString>
        <CharString name="greater">
          6 42 948 hstem
          61 979 vstem
          122 42 rmoveto
          918 435 rlineto
          102 vlineto
          -920 411 -21 -16 -36 -74 -2 -28 rlinecurve
          808 -347 -799 -367 12 -38 24 -57 16 -21 rlinecurve
          endchar
        </CharString>
        <CharString name="guillemotleft">
          -57 830 -20 hstemhm
          115 408 -16 408 hintmask 11000000
          507 411 -51 callsubr
          hintmask 10100000
          -392 -101 -51 callsubr
          endchar
        </CharString>
        <CharString name="guillemotright">
          -57 47 835 hstem
          115 800 vstem
          510 99 rmoveto
          15 -26 37 -21 20 -5 333 368 rcurveline
          103 vlineto
          -333 364 -25 -10 -37 -35 -12 -23 rlinecurve
          256 -351 rlineto
          -646 -364 rmoveto
          15 -26 37 -21 19 -5 334 368 rcurveline
          103 52 callsubr
          257 -351 rlineto
          endchar
        </CharString>
        <CharString name="guilsinglleft">
          -454 830 -20 hstem
          115 408 vstem
          115 411 -51 callsubr
          endchar
        </CharString>
        <CharString name="guilsinglright">
          -452 99 20 hstem
          113 408 vstem
          116 99 rmoveto
          15 -25 36 -22 20 -5 334 370 rcurveline
          101 52 callsubr
          256 -350 rlineto
          endchar
        </CharString>
        <CharString name="h">
          155 76 callgsubr
          491 138 hstem
          241 168 451 168 vstem
          95 -59 callsubr
          643 -3 callgsubr
          173 -1359 65 callgsubr
        </CharString>
        <CharString name="hbar">
          166 76 callgsubr
          160 104 227 138 hstemhm
          68 689 -504 168 451 168 hintmask 11111011
          107 -59 callsubr
          282 333 vlineto
          4 29 0 47 -4 28 rrcurveto
          -333 257 hlineto
          1 callgsubr
          173 -227 -180 hlineto
          hintmask 11111101
          -5 -104 rlineto
          hintmask 11111011
          185 -1028 65 callgsubr
        </CharString>
        <CharString name="hyphen">
          -438 499 125 hstem
          95 459 62 callgsubr
          455 71 callgsubr
          68 -5 29 rrcurveto
          -451 hlineto
          endchar
        </CharString>
        <CharString name="i">
          10 callsubr
          227 230 hstemhm
          210 232 -180 34 callgsubr
          hintmask 11001000
          327 -24 callsubr
          -221 16 callsubr
          rmoveto
          9 callgsubr
          hintmask 11110000
          -88 callsubr
          rrcurveto
          endchar
        </CharString>
        <CharString name="iacute">
          10 callsubr
          127 423 hstemhm
          180 350 -268 168 hintmask 00110000
          264 1106 rmoveto
          266 380 -22 43 -165 -14 -163 -354 rlineto
          hintmask 11001000
          21 -31 36 -16 27 -8 rrcurveto
          -158 -1106 rmoveto
          -95 callgsubr
        </CharString>
        <CharString name="icircumflex">
          -405 -16 callgsubr
          31 callgsubr
          2 602 -326 168 hintmask 11001000
          77 -100 callsubr
          45 -1137 rmoveto
          -29 callsubr
          rrcurveto
          hintmask 00110000
          -172 30 rlineto
          -94 callsubr
          rrcurveto
          endchar
        </CharString>
        <CharString name="idieresis">
          -409 -16 callgsubr
          227 210 hstemhm
          35 211 28 168 -39 210 hintmask 00000000
          hintmask 00110100
          506 -80 callgsubr
          -367 -73 callsubr
          hintmask 11001000
          -21 16 callsubr
          rmoveto
          -95 callgsubr
        </CharString>
        <CharString name="idotaccent">
          -427 0 88 -88 108 757 114 30 callgsubr
          227 220 -175 34 callgsubr
          hintmask 01101100
          336 92 callgsubr
          hintmask 01110100
          87 callsubr
          -86 -23 -50 -61 hvcurveto
          hintmask 01101100
          -61 23 -48 86 vhcurveto
          hintmask 01101010
          -223 -1172 rmoveto
          hintmask 10101010
          464 hlineto
          hintmask 01101010
          5 29 0 30 -5 29 -54 9 -29 5 -54 6 rrcurveto
          749 vlineto
          84 -10 38 -90 -54 -63 0 -20 -131 vhcurveto
          7 -94 rlineto
          173 -757 hlineto
          -40 -4 -69 -7 -57 -9 rrcurveto
          endchar
        </CharString>
        <CharString name="igrave">
          10 callsubr
          127 428 hstemhm
          50 333 -121 168 hintmask 00110000
          295 1106 rmoveto
          29 8 37 16 22 31 -158 373 rcurveline
          -155 -14 -20 -43 rlineto
          hintmask 11001000
          56 -1477 rmoveto
          -95 callgsubr
        </CharString>
        <CharString name="ij">
          146 -16 callgsubr
          226 231 -230 230 hstemhm
          210 232 -180 168 352 307 -178 68 callsubr
          hintmask 11000100
          974 15 callgsubr
          -647 1 -39 callgsubr
          385 -1752 rmoveto
          hintmask 11011000
          70 -74 rlineto
          296 -21 callsubr
          -116 53 callgsubr
          hintmask 00000000
          12 -86 rlineto
          171 -814 hlineto
          5 callgsubr
          rrcurveto
          hintmask 01100010
          -606 546 rmoveto
          9 callgsubr
          -61 -120 -32 -20 -52 hvcurveto
          hintmask 01000001
          37 callgsubr
          170 hlineto
          hintmask 01000010
          -730 vlineto
          -50 -9 -65 71 callsubr
          rrcurveto
          endchar
        </CharString>
        <CharString name="iogonek">
          -464 57 callsubr
          298 33 -33 111 730 138 227 230 hstemhm
          137 147 -98 232 -180 168 hintmask 11011010
          303 -24 callsubr
          -222 16 callsubr
          rmoveto
          280 hlineto
          -27 -16 rlineto
          hintmask 11011100
          -107 53 callsubr
          75 -41 72 82 69 17 callgsubr
          86 77 hvcurveto
          100 -27 callsubr
          rrcurveto
          hintmask 10111001
          -172 30 rlineto
          -94 callsubr
          6 -50 rcurveline
          -1 hlineto
          endchar
        </CharString>
        <CharString name="itilde">
          -421 -16 callgsubr
          172 148 -65 144 0 -20 31 -20 hstemhm
          -27 661 -372 34 callgsubr
          hintmask 00010010
          21 1170 rmoveto
          47 57 55 17 42 hhcurveto
          hintmask 00100110
          85 -5 28 -76 102 -2 rrcurveto
          70 115 40 156 59 hvcurveto
          -57 42 rlineto
          -52 -54 -43 -38 -65 hhcurveto
          hintmask 00101010
          -72 -16 72 7 -122 hvcurveto
          -90 4 -108 -90 -34 -70 rrcurveto
          hintmask 11000001
          133 -1222 rmoveto
          -95 callgsubr
        </CharString>
        <CharString name="j">
          -528 841 138 226 231 hstemhm
          108 307 -178 68 callsubr
          hintmask 11100000
          300 15 callgsubr
          hintmask 10010000
          -63 -1178 -16 callsubr
          vhcurveto
          hintmask 10100000
          68 callgsubr
          hvcurveto
          12 -86 rlineto
          hintmask 10010000
          171 hlineto
          endchar
        </CharString>
        <CharString name="jcircumflex">
          -531 841 138 31 callgsubr
          -44 602 -326 167 hintmask 10010000
          31 -100 callsubr
          201 -1110 rmoveto
          -129 7 -92 -31 -92 vhcurveto
          hintmask 01100000
          -26 -75 -49 -74 -100 -111 71 -74 rcurveline
          295 -21 callsubr
          -115 53 callgsubr
          11 -86 rlineto
          171 hlineto
          endchar
        </CharString>
        <CharString name="k">
          49 -15 107 -92 81 760 60 callgsubr
          hintmask 01111000
          -23 callsubr
          hintmask 10111000
          -69 callsubr
          endchar
        </CharString>
        <CharString name="kcommaaccent">
          49 -509 -21 515 107 -92 81 -81 128 713 60 callgsubr
          73 279 hintmask 10101111
          -23 callsubr
          hintmask 11001111
          -69 callsubr
          hintmask 10011111
          433 -15 callsubr
        </CharString>
        <CharString name="kgreenlandic">
          67 80 callgsubr
          -104 -21 26 -21 850 138 -133 101 hstemhm
          255 169 hintmask 10001100
          97 hmoveto
          475 56 callgsubr
          10 callgsubr
          -161 28 rlineto
          272 vlineto
          127 77 203 -359 74 -63 71 -31 rlinecurve
          hintmask 00101100
          40 -21 83 -2 40 9 35 7 31 18 9 11 -2 65 rcurveline
          -40 10 -88 28 -23 17 -128 99 -95 158 -97 128 379 316 rcurveline
          31 17 -5 82 rlineto
          -385 hlineto
          -9 -20 -5 -38 5 -21 49 -13 75 -5 38 -4 -144 -137 -137 -127 -129 -95 rrcurveto
          385 vlineto
          hintmask 01010100
          41 -3 -3 66 -111 hhcurveto
          -75 91 callsubr
          -34 hvcurveto
          13 -86 rlineto
          172 hlineto
          hintmask 10001100
          -730 -2 vlineto
          -50 -9 -66 -12 -49 -12 rrcurveto
          endchar
        </CharString>
        <CharString name="l">
          -461 80 callgsubr
          1359 140 hstem
          237 169 -37 callsubr
          endchar
        </CharString>
        <CharString name="lacute">
          -438 80 callgsubr
          1359 140 79 251 hstemhm
          192 410 -370 169 hintmask 11110000
          225 1689 rmoveto
          375 138 2 45 -20 29 -48 25 -33 14 rlinecurve
          -309 -184 6 -26 10 -19 17 -22 rlinecurve
          -145 -1689 rmoveto
          33 callgsubr
          rrcurveto
          hintmask 11101000
          -173 30 rlineto
          -51 callgsubr
          endchar
        </CharString>
        <CharString name="ldot">
          -403 80 callgsubr
          435 223 701 140 hstem
          237 169 135 223 -37 callsubr
          576 468 rmoveto
          61 51 29 82 83 -51 29 -61 -61 -50 -29 -83 -82 50 -29 61 hvcurveto
          endchar
        </CharString>
        <CharString name="less">
          6 47 948 hstem
          54 979 vstem
          54 458 rmoveto
          920 -411 21 16 36 74 2 28 rlinecurve
          -808 347 799 367 -12 38 -24 57 -16 21 rlinecurve
          -918 -435 rlineto
          endchar
        </CharString>
        <CharString name="logicalnot">
          28 90 callsubr
          872 132 62 callgsubr
          777 -336 132 459 -905 hlineto
          endchar
        </CharString>
        <CharString name="lslash">
          -407 80 callgsubr
          723 -20 656 140 hstem
          257 9 141 18 vstem
          106 hmoveto
          485 hlineto
          7 23 4 29 -4 29 36 callgsubr
          688 vlineto
          219 116 rlineto
          44 -9 36 -7 40 vhcurveto
          -17 5 -186 -113 rlineto
          573 63 callsubr
          69 -112 -75 -142 20 callsubr
          -88 rlineto
          184 -640 hlineto
          -198 -109 rlineto
          0 -2 -52 6 -55 vhcurveto
          15 -9 179 101 rlineto
          -595 vlineto
          -49 -9 -61 -10 -50 -14 rrcurveto
          endchar
        </CharString>
        <CharString name="m">
          781 8 callgsubr
          hstemhm
          267 163 36 callsubr
          449 169 hintmask 10011110
          120 hmoveto
          464 hlineto
          5 9 6 10 callgsubr
          -163 30 rlineto
          669 vlineto
          43 95 73 21 121 hhcurveto
          113 38 -57 -140 hvcurveto
          hintmask 01101110
          61 callsubr
          -41 -4 -47 -17 7 31 callsubr
          -3 8 vhcurveto
          hintmask 01011110
          -156 89 callsubr
          43 -2 37 -4 33 vhcurveto
          16 8 rlineto
          45 94 74 21 120 hhcurveto
          113 38 -55 -142 hvcurveto
          61 callsubr
          -40 -4 -48 -17 8 31 callsubr
          -2 8 vhcurveto
          hintmask 01101110
          -156 89 callsubr
          258 -69 64 -210 -122 -101 -41 -78 -116 vhcurveto
          -22 -15 rlineto
          103 -34 -78 31 -145 hhcurveto
          -120 -94 -41 -83 -114 hvcurveto
          17 94 callgsubr
          80 callsubr
          91 callsubr
          -32 vhcurveto
          12 -86 rlineto
          172 -18 callsubr
          -57 -7 -49 -17 rrcurveto
          endchar
        </CharString>
        <CharString name="macron">
          -421 1163 116 hstem
          33 600 vstem
          33 1163 rmoveto
          596 71 callgsubr
          59 -5 29 rrcurveto
          -591 hlineto
          endchar
        </CharString>
        <CharString name="mu">
          148 -618 11 578 144 -144 147 hstemhm
          192 168 458 165 hintmask 00000000
          hintmask 10111000
          314 70 rmoveto
          5 3 rlineto
          -96 33 113 -6 36 hhcurveto
          76 149 31 163 94 hvcurveto
          -102 3 18 -92 128 hhcurveto
          64 97 24 73 68 hvcurveto
          hintmask 11011000
          -23 69 -31 -9 -118 -17 -43 4 rlinecurve
          835 vlineto
          -61 9 -47 -2 -57 -7 rrcurveto
          -711 vlineto
          -95 -101 -95 -26 -114 hhcurveto
          -156 9 157 153 hvcurveto
          hintmask 10111000
          522 vlineto
          -66 15 -47 -8 -45 -7 -21 -1557 rcurveline
          57 -15 77 0 65 17 rrcurveto
          endchar
        </CharString>
        <CharString name="multiply">
          -107 156 746 hstem
          108 764 vstem
          189 156 rmoveto
          298 296 300 -296 85 81 -301 298 286 290 -13 23 -43 41 -26 13 rlinecurve
          -286 -286 -286 284 -30 -21 -33 -22 -25 -37 rlinecurve
          291 -288 -298 -298 rlineto
          endchar
        </CharString>
        <CharString name="n">
          181 8 callgsubr
          hstemhm
          267 168 451 34 callgsubr
          hintmask 01011100
          120 hmoveto
          hintmask 10011100
          464 hlineto
          5 9 6 24 19 vvcurveto
          hintmask 01011100
          2 callsubr
          hintmask 01101100
          61 callsubr
          -40 -7 -48 -14 7 -78 rcurveline
          12 callsubr
          hintmask 10011100
          258 -68 64 -211 -121 -106 -41 -83 -113 vhcurveto
          hintmask 01011100
          17 vlineto
          22 callsubr
          -730 hlineto
          78 callsubr
        </CharString>
        <CharString name="nacute">
          184 0 106 738 135 -116 116 48 callsubr
          253 168 5 413 57 166 hintmask 00000000
          hintmask 10101010
          503 -96 callgsubr
          -397 -1106 rmoveto
          hintmask 11001010
          469 hlineto
          4 29 0 28 -4 28 rrcurveto
          hintmask 10101010
          -55 10 -47 4 -52 7 rrcurveto
          676 vlineto
          43 94 109 19 120 hhcurveto
          109 43 -52 -152 hvcurveto
          -534 vlineto
          -43 -4 -35 -7 -58 -10 9 -85 93 callgsubr
          4 29 0 28 -4 28 -56 10 -41 4 -52 7 rrcurveto
          hintmask 11001010
          551 vlineto
          258 -67 64 -210 -124 -127 -38 -84 -113 vhcurveto
          hintmask 00010100
          88 -6 -18 34 -70 hhcurveto
          -55 -60 -3 -19 -129 hvcurveto
          9 -94 rlineto
          161 -757 hlineto
          -43 -4 -54 -7 -57 -10 rrcurveto
          endchar
        </CharString>
        <CharString name="nbspace">
          -551 endchar
        </CharString>
        <CharString name="nine">
          4 -241 85 406 126 571 104 hstem
          95 172 502 169 vstem
          230 -156 rmoveto
          -5 -38 0 -9 12 -38 127 -7 168 18 129 86 rrcurveto
          235 158 42 250 322 vvcurveto
          307 -115 156 -286 2 vhcurveto
          -203 3 -244 -82 5 -325 rrcurveto
          -229 4 48 -168 279 hhcurveto
          228 97 109 7 7 hvcurveto
          -23 -210 -43 -102 -110 -94 rrcurveto
          -75 -93 -155 -41 -104 hhcurveto
          259 532 rmoveto
          -212 -8 132 159 -2 hvcurveto
          -3 229 124 54 124 -3 171 -4 73 -111 8 -144 7 -74 -2 -87 -5 -62 rrcurveto
          -21 -17 -118 -68 -140 hhcurveto
          endchar
        </CharString>
        <CharString name="ntilde">
          181 8 callgsubr
          159 -11 callsubr
          267 168 -144 742 -147 168 51 callsubr
          hintmask 0101001010000000
          337 1158 rmoveto
          hintmask 1001001010000000
          -10 callgsubr
          rrcurveto
          29 callsubr
          hintmask 0101001010000000
          -47 callgsubr
          hintmask 0110001010000000
          -171 -1211 rmoveto
          464 hlineto
          5 9 6 24 19 vvcurveto
          2 callsubr
          hintmask 1001001010000000
          61 callsubr
          -40 -7 -48 -14 rrcurveto
          hintmask 0101001010000000
          7 -78 rlineto
          12 callsubr
          258 -68 64 -211 vhcurveto
          51 callsubr
          -121 -106 -41 -83 -113 hvcurveto
          17 vlineto
          hintmask 0000010100000000
          22 callsubr
          hlineto
          hintmask 0000100100000000
          -730 vlineto
          78 callsubr
        </CharString>
        <CharString name="numbersign">
          33 282 117 262 119 hstem
          111 905 vstem
          237 78 rmoveto
          113 -10 43 214 rlineto
          240 hlineto
          -40 -204 113 -10 43 214 rlineto
          208 hlineto
          5 27 0 63 -5 27 rrcurveto
          -185 hlineto
          53 262 rlineto
          187 56 callsubr
          61 -5 29 rrcurveto
          -163 38 callgsubr
          -239 38 callgsubr
          -206 hlineto
          -5 -119 rlineto
          188 hlineto
          -52 -262 rlineto
          -186 hlineto
          -4 -117 rlineto
          166 hlineto
          139 117 rmoveto
          53 262 rlineto
          240 hlineto
          -52 -262 rlineto
          endchar
        </CharString>
        <CharString name="o">
          14 callgsubr
          hstem
          95 callsubr
          553 185 vstem
          95 475 -52 callsubr
        </CharString>
        <CharString name="oacute">
          14 callgsubr
          48 callsubr
          95 callsubr
          111 413 29 185 hintmask 11010100
          467 -96 callgsubr
          -372 -631 -54 callgsubr
          vhcurveto
          hintmask 00101000
          -26 callgsubr
        </CharString>
        <CharString name="ocircumflex">
          14 callgsubr
          31 callgsubr
          95 callsubr
          -20 602 -29 185 hintmask 11010100
          334 -100 callsubr
          -239 -662 -19 callsubr
          vhcurveto
          hintmask 00101000
          -56 callsubr
          -26 callgsubr
        </CharString>
        <CharString name="odieresis">
          14 callgsubr
          hstemhm
          95 callsubr
          553 185 vstemhm
          747 -98 callsubr
          -257 -731 -52 callsubr
        </CharString>
        <CharString name="oe">
          628 -29 107 -107 128 428 102 243 107 -102 102 hstemhm
          95 callsubr
          571 136 460 173 hintmask 10110111
          95 475 -19 callsubr
          186 123 66 106 72 vhcurveto
          -142 66 128 -30 169 hhcurveto
          201 140 81 14 18 hvcurveto
          -33 85 rlineto
          hintmask 01110111
          -7 -21 81 callsubr
          -101 72 callsubr
          -18 11 callgsubr
          35 callgsubr
          -41 callgsubr
          -153 -113 -45 -117 -68 hvcurveto
          100 -54 -99 62 -180 hhcurveto
          -28 callsubr
          hvcurveto
          909 147 rmoveto
          hintmask 10101111
          179 17 59 76 172 hhcurveto
          81 108 -12 -227 5 hvcurveto
          -1167 -163 rmoveto
          hintmask 10110111
          -87 callsubr
        </CharString>
        <CharString name="ograve">
          14 callgsubr
          62 callsubr
          95 callsubr
          66 411 76 185 hintmask 11010100
          677 -61 callsubr
          -250 -988 -50 callsubr
          hintmask 00101000
          -82 callgsubr
        </CharString>
        <CharString name="one">
          -301 0 115 hstem
          336 167 vstem
          147 hmoveto
          527 hlineto
          5 29 6 32 -4 29 -54 9 -70 9 -54 7 rrcurveto
          909 vlineto
          -30 25 -64 5 -213 -30 -99 -34 rlinecurve
          11 -85 228 -3 rlineto
          -787 vlineto
          -41 -4 -99 -12 -56 -9 rrcurveto
          endchar
        </CharString>
        <CharString name="onehalf">
          944 -2 107 -100 -21 654 85 -85 109 17 120 504 132 hstemhm
          296 142 42 921 218 164 hintmask 0100000100000000
          23 callgsubr
          hintmask 1000100010000000
          3 callgsubr
          44 callsubr
          rlinecurve
          11 -73 rlineto
          13 callgsubr
          1036 -583 rmoveto
          -35 11 -81 16 -26 vhcurveto
          51 callsubr
          64 callsubr
          rrcurveto
          hintmask 0001011000000000
          41 callsubr
          hintmask 0010011000000000
          -37 callgsubr
          endchar
        </CharString>
        <CharString name="onequarter">
          1007 75 callgsubr
          343 77 callgsubr
          296 142 1167 139 51 callsubr
          hintmask 0011000010000000
          23 callgsubr
          3 callgsubr
          rlineto
          hintmask 0101000010000000
          44 callsubr
          11 -73 rcurveline
          13 callgsubr
          978 -446 rmoveto
          43 -83 rlineto
          473 hlineto
          hintmask 1001000010000000
          -196 vlineto
          23 -5 86 -2 30 7 rrcurveto
          51 callsubr
          196 144 vlineto
          hintmask 0000011100000000
          49 callsubr
          hintmask 0000101100000000
          73 callsubr
          -376 -5 144 59 callsubr
          -28 43 -62 45 -35 2 -175 -226 -154 78 callgsubr
        </CharString>
        <CharString name="onesuperior">
          -403 756 77 callgsubr
          282 142 hintmask 00000000
          hintmask 01110000
          104 756 rmoveto
          480 hlineto
          hintmask 10110000
          -4 callgsubr
          hintmask 01110000
          -34 41 44 callsubr
          rlinecurve
          11 -73 rlineto
          13 callgsubr
          endchar
        </CharString>
        <CharString name="ordfeminine">
          -225 697 117 23 -20 540 120 hstemhm
          54 156 315 149 hintmask 00000000
          hintmask 01111000
          262 697 rmoveto
          hintmask 10111000
          117 101 72 51 52 hvcurveto
          2 -33 rlineto
          -50 3 16 -40 87 hhcurveto
          45 59 14 22 43 hvcurveto
          18 11 18 10 7 12 -27 71 rcurveline
          -10 -30 -62 -11 -23 hhcurveto
          -5 -4 -2 2 -5 hvcurveto
          363 vlineto
          225 -60 73 -222 -144 -115 -66 -17 -29 vhcurveto
          36 -87 rlineto
          28 77 71 22 71 hhcurveto
          126 38 -22 -146 2 hvcurveto
          -34 vlineto
          -65 -4 rlineto
          -198 -14 -208 -52 -187 vvcurveto
          hintmask 01111000
          -16 vlineto
          hintmask 10111000
          -142 116 -43 92 vhcurveto
          45 117 rmoveto
          -50 -47 18 70 104 90 31 169 29 hvcurveto
          56 10 rlineto
          -183 vlineto
          -56 -83 -83 -23 -52 hhcurveto
          endchar
        </CharString>
        <CharString name="ordmasculine">
          -199 697 97 586 97 hstem
          70 160 424 160 vstem
          413 697 rmoveto
          263 138 171 219 217 -65 173 -278 -268 -133 -173 -217 -219 70 -171 273 hvcurveto
          27 97 rmoveto
          -131 -79 45 248 246 99 47 111 132 82 -47 -246 -248 -104 -45 -110 hvcurveto
          endchar
        </CharString>
        <CharString name="oslash">
          37 -192 1338 -1175 107 794 107 hstemhm
          100 184 -48 652 -51 185 hintmask 10001000
          236 -156 rmoveto
          91 -36 75 174 rlineto
          hintmask 01110100
          -7 36 40 -4 45 hhcurveto
          -19 callgsubr
          206 -45 177 -162 78 hvcurveto
          hintmask 10001000
          73 170 -26 24 -35 14 -33 2 rlinecurve
          -76 -178 rlineto
          hintmask 01110100
          7 -36 -40 4 -44 hhcurveto
          -28 callsubr
          -208 44 -177 164 -78 hvcurveto
          hintmask 10001000
          57 134 rmoveto
          hintmask 01110100
          -52 57 -29 101 171 vvcurveto
          324 123 73 153 41 37 -4 -11 32 vhcurveto
          -220 -765 rmoveto
          307 710 rlineto
          51 -57 29 -101 -169 vvcurveto
          -324 -123 -73 -154 -41 -37 4 10 -32 vhcurveto
          endchar
        </CharString>
        <CharString name="otilde">
          14 callgsubr
          159 -11 callsubr
          95 callsubr
          -78 742 -111 185 hintmask 11001010
          247 -38 callsubr
          -106 -736 -19 callsubr
          vhcurveto
          hintmask 00000000
          -56 callsubr
          hvcurveto
          hintmask 00010100
          -28 callsubr
          hvcurveto
          184 hmoveto
          -56 callgsubr
          vhcurveto
          hintmask 00100100
          -64 callsubr
        </CharString>
        <CharString name="p">
          103 -591 118 444 131 739 138 -126 126 hstemhm
          225 167 513 180 hintmask 00000000
          hintmask 11101100
          392 76 rmoveto
          -67 83 89 -38 131 hhcurveto
          191 192 83 469 7 hvcurveto
          259 4 -68 197 -288 hhcurveto
          -165 -119 -81 -41 -64 hvcurveto
          13 vlineto
          39 -4 70 -112 -75 91 callsubr
          -33 vhcurveto
          12 -86 rlineto
          180 hlineto
          hintmask 11011100
          -1314 vlineto
          -50 -9 -62 -10 -50 -16 10 -83 rcurveline
          hintmask 11101100
          572 hlineto
          7 31 2 28 -2 33 -260 26 rcurveline
          hintmask 11011100
          660 vmoveto
          573 59 callgsubr
          21 -172 -158 -2 hvcurveto
          -235 -3 -30 -186 -208 hhcurveto
          -114 -96 40 45 -62 hvcurveto
          endchar
        </CharString>
        <CharString name="paragraph">
          209 -379 136 626 125 821 118 hstem
          868 172 vstem
          374 -178 rmoveto
          -52 -141 149 -78 259 -2 140 75 rlinecurve
          113 62 57 125 189 vvcurveto
          1285 vlineto
          47 7 64 11 49 16 -9 77 rcurveline
          -598 hlineto
          -343 -148 -146 -352 -418 103 -149 407 76 87 7 14 93 hvcurveto
          -354 vlineto
          -183 -20 -59 -49 -27 vhcurveto
          -15 -24 -66 -9 -45 hhcurveto
          -125 -109 42 23 -56 hvcurveto
          392 686 rmoveto
          -258 4 10 237 243 vvcurveto
          208 37 126 178 2 vhcurveto
          135 3 rlineto
          -821 vlineto
          -5 -31 -48 3 -23 hhcurveto
          endchar
        </CharString>
        <CharString name="parenleft">
          -424 -510 2280 hstem
          149 153 vstem
          149 584 rmoveto
          7 -584 257 -381 107 -129 97 66 rcurveline
          -253 371 -59 434 -3 225 -2 279 40 437 258 407 -99 61 rcurveline
          -102 -146 -255 -400 7 -640 rrcurveto
          endchar
        </CharString>
        <CharString name="parenright">
          -421 -510 2280 hstem
          368 155 vstem
          73 -449 rmoveto
          100 -61 102 146 255 400 -7 640 rlinecurve
          -8 584 -258 380 -106 130 -97 -66 rcurveline
          253 -371 59 -435 2 -224 4 -279 -41 -438 -258 -406 rrcurveto
          endchar
        </CharString>
        <CharString name="percent">
          274 -31 92 -63 -21 427 95 90 94 341 94 hstemhm
          88 129 243 131 173 129 244 130 51 callsubr
          hintmask 0111111110000000
          282 -23 rmoveto
          99 -45 673 1155 -26 29 -26 18 -45 7 rlinecurve
          -638 -552 rmoveto
          177 95 115 151 144 -43 119 -191 -179 -90 -119 -144 -151 47 -115 184 hvcurveto
          19 94 rmoveto
          -76 -45 28 144 142 55 27 66 75 47 -27 -142 -144 -56 -28 -66 hvcurveto
          hintmask 1011111110000000
          426 -451 rmoveto
          -147 44 -116 189 175 95 116 147 149 -45 118 -189 -180 -89 -118 -149 vhcurveto
          129 hmoveto
          142 54 30 65 77 48 -30 -142 -144 -57 -27 -68 -74 -45 27 144 vhcurveto
          endchar
        </CharString>
        <CharString name="period">
          -603 -36 251 hstem
          118 248 vstem
          118 90 rmoveto
          -72 29 -54 96 95 28 54 72 68 -28 57 -95 -96 -29 -57 -68 vhcurveto
          endchar
        </CharString>
        <CharString name="periodcentered">
          -594 433 257 hstem
          118 258 vstem
          246 433 rmoveto
          99 31 56 71 71 -31 59 -99 -99 -29 -59 -71 -71 29 -56 99 hvcurveto
          endchar
        </CharString>
        <CharString name="plus">
          -51 489 118 hstem
          451 126 vstem
          451 130 rmoveto
          126 359 361 56 callsubr
          61 -5 28 rrcurveto
          -361 345 hlineto
          -29 7 -68 0 -29 -7 rrcurveto
          -345 -352 vlineto
          -4 -118 rlineto
          356 hlineto
          endchar
        </CharString>
        <CharString name="plusminus">
          -152 0 118 400 116 hstem
          404 123 vstem
          404 234 rmoveto
          123 284 323 71 callgsubr
          59 -5 29 rrcurveto
          -323 266 hlineto
          -28 7 -66 0 -29 -7 rrcurveto
          -266 -319 vlineto
          -4 -116 rlineto
          323 hlineto
          -323 -518 rmoveto
          769 56 callsubr
          61 -5 28 rrcurveto
          -765 hlineto
          endchar
        </CharString>
        <CharString name="q">
          42 -591 118 444 133 756 119 hstem
          97 178 521 169 vstem
          435 -29 rmoveto
          129 157 76 61 75 hvcurveto
          -581 vlineto
          -49 -2 -158 -14 -50 -16 9 -86 rcurveline
          558 hlineto
          8 29 2 32 31 vvcurveto
          -151 26 rlineto
          953 vlineto
          156 9 178 14 136 vhcurveto
          -41 22 -34 2 -41 5 -12 -22 -14 -57 -9 -32 rrcurveto
          23 -38 -138 88 -160 hhcurveto
          -217 -189 -192 -350 2 hvcurveto
          -380 2 126 -86 210 hhcurveto
          45 133 rmoveto
          -171 -34 130 208 246 63 172 201 85 140 -55 -18 44 hvcurveto
          -3 -52 -9 -111 -64 vvcurveto
          -350 vlineto
          -54 -83 -131 -52 -102 hhcurveto
          endchar
        </CharString>
        <CharString name="question">
          -231 -29 230 1163 113 hstemhm
          73 163 -9 229 -221 159 213 178 hintmask 00000000
          hintmask 01001100
          253 383 rmoveto
          40 -15 86 15 23 14 -5 81 -33 90 118 104 rrcurveto
          123 108 180 92 251 vvcurveto
          259 -93 95 -262 vhcurveto
          hintmask 01100100
          -146 -149 -56 -43 -62 hvcurveto
          10 -106 9 -67 19 -96 33 -6 31 -2 57 10 9 229 rcurveline
          15 41 68 9 26 hhcurveto
          158 73 -62 -168 -38 2 -68 -23 -47 hvcurveto
          hintmask 01001100
          -61 -124 -128 -88 -73 -74 -105 -104 6 -90 28 -118 rrcurveto
          hintmask 11010100
          -26 -298 rmoveto
          -67 23 -47 90 90 26 47 67 66 -26 79 callsubr
        </CharString>
        <CharString name="questiondown">
          -306 -525 113 1163 230 hstemhm
          59 178 151 229 -167 159 -1 163 hintmask 00000000
          hintmask 10101000
          504 751 rmoveto
          90 23 50 66 67 -23 47 -90 -90 -26 -47 -67 -66 26 -50 90 hvcurveto
          hintmask 10100100
          -445 -922 rmoveto
          -259 93 -95 262 146 149 56 43 62 vhcurveto
          -10 106 -9 67 -19 96 -33 6 -31 2 -57 -10 -9 -229 rcurveline
          -15 -41 -68 -9 -26 hhcurveto
          hintmask 10101000
          -158 -73 62 168 38 -2 68 23 47 hvcurveto
          hintmask 11110000
          61 124 128 88 73 74 105 104 -6 90 -28 118 -40 15 -86 -15 -23 -14 5 -81 33 -90 -118 -104 rrcurveto
          -123 -108 -180 -92 -251 vvcurveto
          endchar
        </CharString>
        <CharString name="quotedbl">
          -337 1037 421 hstem
          158 158 135 158 vstem
          435 1042 rmoveto
          0 callgsubr
          -293 hmoveto
          0 callgsubr
          endchar
        </CharString>
        <CharString name="quotedblbase">
          -306 75 callsubr
          176 155 vstem
          426 -189 rmoveto
          -4 callsubr
          -40 16 -88 34 -61 -27 -20 -97 65 -47 rcurveline
          -7 -73 -69 -144 -28 -38 rrcurveto
          -291 302 -22 callgsubr
        </CharString>
        <CharString name="quotedblleft">
          -348 1036 443 hstem
          76 156 174 156 vstem
          458 1049 rmoveto
          88 -32 61 25 21 callgsubr
          -179 -5 -133 -2 -38 14 -35 40 -17 rrcurveto
          -330 hmoveto
          87 -32 62 25 18 97 -63 47 rcurveline
          7 74 68 144 29 37 -54 38 rcurveline
          -48 -28 -153 -179 -5 -133 -3 -38 15 -35 40 -17 rrcurveto
          endchar
        </CharString>
        <CharString name="quotedblright">
          -348 76 callsubr
          174 156 vstem
          458 1033 24 callsubr
          3 38 -15 35 -40 17 -87 33 -62 -26 -19 -97 64 -47 rcurveline
          -7 -74 -68 -143 -29 -38 rrcurveto
          -276 -38 -14 callsubr
        </CharString>
        <CharString name="quoteleft">
          -716 1040 444 hstem
          61 156 vstem
          113 1054 rmoveto
          88 -33 61 26 21 callgsubr
          -180 -5 -132 -2 -38 14 -35 40 -17 rrcurveto
          endchar
        </CharString>
        <CharString name="quoteright">
          -679 76 callsubr
          vstem
          128 1033 -14 callsubr
        </CharString>
        <CharString name="quotesinglbase">
          -637 75 callsubr
          vstem
          135 113 -22 callgsubr
        </CharString>
        <CharString name="quotesingle">
          -716 1037 421 hstem
          118 159 vstem
          102 1042 rmoveto
          96 -5 rlineto
          36 88 43 149 174 vvcurveto
          8 -128 42 callsubr
          -10 -132 -6 -88 vhcurveto
          endchar
        </CharString>
        <CharString name="r">
          -263 0 6 callgsubr
          hstemhm
          260 34 callgsubr
          hintmask 10110000
          108 hmoveto
          hintmask 11010000
          546 hlineto
          -62 callsubr
          hintmask 10110000
          -78 callsubr
          endchar
        </CharString>
        <CharString name="racute">
          -242 0 6 callgsubr
          462 39 hstemhm
          253 168 -55 398 hintmask 00010100
          435 1082 rmoveto
          329 359 -24 41 -158 -3 -216 -342 rlineto
          hintmask 00000000
          22 -31 18 -17 29 -7 rrcurveto
          hintmask 10101000
          hintmask 11001000
          -334 -1082 rmoveto
          546 hlineto
          -70 callsubr
          hintmask 10101000
          42 34 -5 -4 23 hvcurveto
          -78 callsubr
          endchar
        </CharString>
        <CharString name="rcaron">
          -263 0 6 callgsubr
          167 371 hstemhm
          135 602 -477 34 callgsubr
          hintmask 10100100
          381 1146 rmoveto
          hintmask 11000100
          101 hlineto
          255 308 -16 23 -38 31 -21 9 rlinecurve
          -225 -207 -226 207 -24 -7 -41 -31 -11 -25 rlinecurve
          -27 -1454 rmoveto
          546 hlineto
          hintmask 10100100
          -62 callsubr
          -61 callgsubr
          hintmask 00011000
          -66 callgsubr
          endchar
        </CharString>
        <CharString name="rcommaaccent">
          -263 -509 -21 530 6 callgsubr
          hstemhm
          251 279 -270 34 callgsubr
          hintmask 01010100
          108 hmoveto
          hintmask 01100100
          546 hlineto
          -62 callsubr
          hintmask 01010100
          -78 callsubr
          hintmask 10001000
          176 -15 callsubr
        </CharString>
        <CharString name="registered">
          500 -29 114 227 67 -67 78 212 79 338 77 208 114 hstemhm
          70 122 363 128 296 130 285 124 51 callsubr
          hintmask 1011111111000000
          -59 callgsubr
          hintmask 1101111111000000
          268 -383 rmoveto
          322 hlineto
          3 22 4 18 -2 22 -43 7 -18 4 -43 5 rrcurveto
          219 vlineto
          -4 43 40 -3 33 hhcurveto
          170 -290 rlineto
          192 hlineto
          5 12 2 52 -2 3 -100 18 rcurveline
          hintmask 1011111111000000
          -146 220 rlineto
          104 17 85 58 154 vvcurveto
          230 -123 20 -208 vhcurveto
          -309 hlineto
          -9 -23 -2 -17 2 -23 41 -9 11 0 43 -5 rrcurveto
          -629 vlineto
          -43 -5 -16 -2 -42 -9 rrcurveto
          229 311 rmoveto
          334 64 vlineto
          180 52 -20 -153 -142 -79 -30 -158 7 hvcurveto
          endchar
        </CharString>
        <CharString name="ring">
          -637 1071 46 callgsubr
          hstem
          3 45 callgsubr
          vstem
          225 1071 -91 callgsubr
          endchar
        </CharString>
        <CharString name="ring.cap">
          -615 1411 46 callgsubr
          hstem
          15 45 callgsubr
          vstem
          237 1411 -91 callgsubr
          endchar
        </CharString>
        <CharString name="s">
          -192 -29 105 801 102 hstemhm
          113 151 373 141 -137 68 callsubr
          hintmask 11101000
          78 52 rmoveto
          -40 73 161 -41 118 hhcurveto
          116 262 6 276 99 -44 72 -88 47 hvcurveto
          -142 75 -97 29 -80 37 rrcurveto
          hintmask 11110000
          -78 38 -15 35 55 vvcurveto
          94 63 43 113 52 97 -17 -26 42 vhcurveto
          12 -165 90 -5 40 107 2 125 3 45 rlinecurve
          35 -133 -125 3 -57 hhcurveto
          hintmask 11101000
          -246 -104 -107 -163 -118 47 -68 107 -43 hvcurveto
          80 -33 158 -68 72 -41 59 -31 11 -68 -9 -54 rrcurveto
          -86 -14 -80 -23 -57 hhcurveto
          -95 -85 19 45 -75 hvcurveto
          -2 40 -3 73 -15 52 -97 -3 rcurveline
          -16 -104 -9 -58 -12 -88 rrcurveto
          endchar
        </CharString>
        <CharString name="sacute">
          -154 -29 107 799 102 48 callsubr
          117 151 56 413 -81 143 -130 172 hintmask 00000000
          hintmask 11010010
          401 -96 callgsubr
          hintmask 11010100
          -299 -1045 rmoveto
          -38 57 186 -52 128 hhcurveto
          97 271 6 276 99 -41 72 -88 47 hvcurveto
          -142 75 -126 40 -61 26 rrcurveto
          -81 33 -34 40 55 vvcurveto
          9 vlineto
          hintmask 11010010
          108 9 73 20 76 hhcurveto
          90 113 -29 -18 24 hvcurveto
          7 -138 90 -4 39 66 7 94 4 81 rlinecurve
          43 -128 -128 7 -57 hhcurveto
          -246 -124 -97 -187 -104 68 -79 106 -41 hvcurveto
          81 -34 165 -69 71 -39 rrcurveto
          35 -20 26 -25 -59 vvcurveto
          hintmask 00101000
          -13 0 -14 -2 -13 vhcurveto
          -86 -14 -71 -21 -71 hhcurveto
          -94 -88 33 42 -71 hvcurveto
          62 0 47 -19 47 vhcurveto
          -99 3 -17 -104 -9 -59 -12 -88 rlinecurve
          endchar
        </CharString>
        <CharString name="section">
          -166 -512 122 -44 44 1745 44 hstemhm
          120 140 135 112 -75 110 134 140 hintmask 10110110
          201 -334 rmoveto
          -54 -139 rlineto
          -28 70 85 -11 38 hhcurveto
          131 108 30 64 75 hvcurveto
          112 96 50 135 164 vvcurveto
          436 -270 263 -36 499 vhcurveto
          -6 68 3 58 8 54 rrcurveto
          42 88 -8 -50 90 hvcurveto
          54 140 rlineto
          29 -70 -85 11 -39 hhcurveto
          -130 -108 -31 -64 -75 hvcurveto
          -112 -96 -50 -135 -163 vvcurveto
          -438 272 -262 36 -498 vhcurveto
          6 -74 -1 -31 -9 -75 rrcurveto
          -3 hlineto
          -42 -88 7 49 -90 hvcurveto
          232 688 rmoveto
          -97 296 -74 177 -2 199 rrcurveto
          111 9 117 83 65 vhcurveto
          15 11 22 9 28 6 rrcurveto
          hintmask 01111010
          -15 -54 -9 -65 2 -51 4 -218 52 -191 52 -157 97 -295 74 -177 2 -198 rrcurveto
          -112 -9 -118 -83 -63 vhcurveto
          -12 -10 -17 -7 -19 -6 28 306 -67 230 -64 195 rrcurveto
          endchar
        </CharString>
        <CharString name="semicolon">
          -628 -314 1264 -231 231 hstemhm
          113 230 hintmask 00000000
          hintmask 10100000
          230 719 rmoveto
          86 27 50 65 64 -27 52 -86 74 callsubr
          -122 -631 rmoveto
          84 -55 rlineto
          hintmask 01100000
          -22 -111 -71 -134 -45 -63 59 -39 rcurveline
          81 61 167 203 7 149 4 57 -18 29 -47 16 -38 14 -44 2 -29 -7 -45 -12 -33 -35 -10 -75 rrcurveto
          endchar
        </CharString>
        <CharString name="seven">
          -89 891 133 hstem
          120 787 vstem
          225 -189 rmoveto
          -23 25 81 -27 59 hhcurveto
          196 573 208 385 113 194 rrcurveto
          34 -25 50 -19 27 vhcurveto
          -737 hlineto
          -5 -4 -5 -5 vvcurveto
          -7 -80 13 -154 2 -51 33 -5 42 -2 41 2 21 172 rcurveline
          499 hlineto
          -119 -178 -234 -386 -188 -516 rrcurveto
          endchar
        </CharString>
        <CharString name="six">
          37 -29 105 571 126 393 92 hstem
          147 172 504 174 vstem
          147 501 rmoveto
          -338 113 -192 324 163 250 74 354 215 -59 159 -281 -229 -97 -109 -7 -7 vhcurveto
          14 116 30 154 124 104 rrcurveto
          72 85 160 63 154 hhcurveto
          31 hlineto
          2 16 0 11 9 vvcurveto
          15 -2 24 -5 11 vhcurveto
          2 -28 -32 4 -27 hhcurveto
          -158 -152 -50 -74 -109 hvcurveto
          -219 -148 -45 -277 -208 vvcurveto
          428 -425 rmoveto
          -263 7 309 170 hvcurveto
          22 17 118 70 139 hhcurveto
          203 27 -124 -157 -184 -72 -106 -176 hvcurveto
          endchar
        </CharString>
        <CharString name="slash">
          84 callsubr
          43 812 vstem
          43 -343 rmoveto
          117 -38 695 1978 -39 24 -43 10 -38 7 rlinecurve
          endchar
        </CharString>
        <CharString name="space">
          -615 endchar
        </CharString>
        <CharString name="sterling">
          -168 0 115 358 109 356 113 hstem
          208 151 316 141 vstem
          104 hmoveto
          695 hlineto
          6 76 9 139 -4 57 -32 5 -43 74 callgsubr
          -14 65 72 40 54 23 97 rlinecurve
          10 42 7 50 3 50 rrcurveto
          224 69 callsubr
          52 -4 29 rrcurveto
          -224 hlineto
          -4 94 -4 58 67 vvcurveto
          104 52 33 114 37 76 -9 -16 31 vhcurveto
          12 -171 90 -5 39 107 4 125 2 45 rlinecurve
          35 -133 -78 2 -57 hhcurveto
          -246 -104 -106 -163 -43 9 -76 1 -81 hvcurveto
          -147 hlineto
          -4 -109 rlineto
          81 callgsubr
          -6 -152 -27 -95 -97 -124 5 -34 7 -39 16 -29 rrcurveto
          endchar
        </CharString>
        <CharString name="t">
          -369 -29 124 751 104 hstem
          187 163 vstem
          187 340 rmoveto
          -207 -12 -162 231 90 116 27 49 83 vhcurveto
          -31 86 rlineto
          -20 -44 -93 -18 -52 hhcurveto
          -111 -14 25 211 hvcurveto
          515 300 vlineto
          4 36 0 33 -4 35 rrcurveto
          -300 274 -120 hlineto
          -43 -274 -133 -12 -7 -33 -2 -26 5 -33 rlinecurve
          137 hlineto
          endchar
        </CharString>
        <CharString name="thorn">
          63 -591 111 451 131 751 126 496 135 hstem
          185 169 514 179 vstem
          354 63 rmoveto
          -54 64 114 -38 113 hhcurveto
          149 243 43 457 10 hvcurveto
          311 7 -59 197 -289 hhcurveto
          -179 -112 -77 -39 -63 hvcurveto
          637 vlineto
          41 -5 69 -110 -77 -131 20 callsubr
          -83 rlineto
          178 -1955 hlineto
          67 callsubr
          7 -88 rcurveline
          569 29 callgsubr
          -66 11 -111 7 -81 5 rrcurveto
          669 vmoveto
          571 vlineto
          48 72 127 45 123 hhcurveto
          184 10 -172 -208 -2 hvcurveto
          -268 -3 -73 -103 -154 hhcurveto
          -108 -112 38 49 -64 hvcurveto
          endchar
        </CharString>
        <CharString name="three">
          -195 -239 88 581 73 414 134 hstemhm
          518 172 -90 173 hintmask 00000000
          hintmask 11101000
          92 39 callsubr
          29 hlineto
          328 317 117 354 151 -60 127 -255 20 hvcurveto
          124 45 108 108 120 vvcurveto
          173 -101 75 -223 vhcurveto
          hintmask 11110000
          -177 -108 -84 -20 -18 hvcurveto
          59 -92 rlineto
          27 51 82 35 92 hhcurveto
          107 64 -33 -92 -135 -187 -111 -126 -43 hvcurveto
          -34 5 -18 9 -21 vhcurveto
          105 hlineto
          255 21 -130 -88 -271 -269 -92 -239 hvcurveto
          endchar
        </CharString>
        <CharString name="threequarters">
          1129 75 callgsubr
          327 42 callgsubr
          981 139 51 callsubr
          hintmask 0011000010000000
          602 31 rmoveto
          97 -47 rlineto
          hintmask 1001000010000000
          825 1529 -28 23 -30 17 -43 5 rlinecurve
          -1310 -882 -40 callgsubr
          23 48 60 28 86 hhcurveto
          hintmask 0011000010000000
          108 56 -31 -75 hvcurveto
          hintmask 0101000010000000
          -128 -194 -38 -101 -25 vhcurveto
          -1 callgsubr
          51 callsubr
          -13 -22 -14 -37 7 -29 rrcurveto
          hintmask 0000110100000000
          1100 -399 rmoveto
          41 -83 rlineto
          474 -196 hlineto
          24 -5 84 -2 31 7 rrcurveto
          196 144 vlineto
          hintmask 0000111000000000
          49 callsubr
          73 callsubr
          -377 -5 145 59 callsubr
          -29 43 -61 45 -35 2 -175 -226 -153 78 callgsubr
        </CharString>
        <CharString name="threesuperior">
          -179 740 42 callgsubr
          hintmask 00000000
          hintmask 11010000
          113 794 -40 callgsubr
          hintmask 11100000
          23 48 60 28 86 hhcurveto
          108 56 -31 -75 -128 -194 -38 -101 -25 hvcurveto
          -1 callgsubr
          -13 -22 -14 -37 7 -29 rrcurveto
          endchar
        </CharString>
        <CharString name="tilde">
          -337 1138 -11 callsubr
          19 742 hintmask 00000000
          hintmask 01100000
          65 1158 3 callsubr
          rrcurveto
          hintmask 10100000
          29 callsubr
          -35 callsubr
          hintmask 01100000
          -72 callgsubr
          endchar
        </CharString>
        <CharString name="tilde.cap">
          -615 1565 -11 callsubr
          -133 742 hintmask 00000000
          hintmask 01100000
          -87 -11 callgsubr
          rrcurveto
          hintmask 10100000
          -69 callgsubr
          rrcurveto
          hintmask 01100000
          -72 callgsubr
          endchar
        </CharString>
        <CharString name="two">
          -98 0 114 803 134 hstem
          627 181 vstem
          133 hmoveto
          694 hlineto
          7 76 7 139 -2 57 -34 5 -41 74 callgsubr
          -16 154 97 390 289 16 217 rlinecurve
          241 19 -116 101 -264 hhcurveto
          -168 -142 -94 -19 -17 hvcurveto
          62 -94 rlineto
          26 50 82 47 119 hhcurveto
          135 56 -38 -130 3 hvcurveto
          2 -80 -29 -60 -38 -49 -113 -154 -232 -179 -115 -94 rrcurveto
          -36 13 -68 18 -29 vhcurveto
          endchar
        </CharString>
        <CharString name="twosuperior">
          -181 756 107 659 120 hstem
          553 164 vstem
          108 756 rmoveto
          64 callsubr
          41 callsubr
          -37 callgsubr
          -35 11 -81 16 -26 vhcurveto
          endchar
        </CharString>
        <CharString name="u">
          -32 callgsubr
          90 callgsubr
          456 165 hintmask 10111000
          208 293 -92 callsubr
          hintmask 01111000
          -95 callsubr
        </CharString>
        <CharString name="uacute">
          -32 callgsubr
          487 40 90 callgsubr
          83 413 -40 165 hintmask 10111100
          534 -96 callgsubr
          -326 -813 -85 callsubr
          hintmask 10111010
          -82 callsubr
          hintmask 01111010
          -95 callsubr
        </CharString>
        <CharString name="ucircumflex">
          -32 callgsubr
          158 371 90 callgsubr
          -95 602 -51 165 hintmask 10110100
          354 -100 callsubr
          hintmask 10111010
          -146 -844 -74 callsubr
        </CharString>
        <CharString name="udieresis">
          -32 callgsubr
          227 210 90 callgsubr
          -99 66 callgsubr
          -51 165 hintmask 10110110
          774 -98 callsubr
          hintmask 10111001
          -171 -913 -92 callsubr
          hintmask 01111001
          -95 callsubr
        </CharString>
        <CharString name="ugrave">
          -32 callgsubr
          127 418 90 callgsubr
          -5 411 50 165 hintmask 10110110
          701 -61 callsubr
          hintmask 10111010
          -161 -1170 -74 callsubr
        </CharString>
        <CharString name="underscore">
          -183 -208 120 hstem
          -5 913 vstem
          -5 -88 rmoveto
          -120 915 120 vlineto
          endchar
        </CharString>
        <CharString name="uni00AD">
          -481 90 callsubr
          88 445 vstem
          88 499 rmoveto
          442 69 callsubr
          66 -4 29 rrcurveto
          -438 hlineto
          endchar
        </CharString>
        <CharString name="uogonek">
          157 57 callsubr
          269 135 -135 140 -115 -21 866 138 hstemhm
          217 166 456 165 -163 147 hintmask 10011101
          217 293 rmoveto
          hintmask 11001101
          -75 callsubr
          20 22 3 4 24 vhcurveto
          -102 -71 -84 -80 -114 vvcurveto
          -97 76 -41 71 83 68 27 callgsubr
          84 117 99 88 82 hvcurveto
          -7 83 rlineto
          hintmask 11001110
          -82 callsubr
          hintmask 10101101
          -95 callsubr
        </CharString>
        <CharString name="v">
          -6 -8 116 -95 -21 27 -21 841 11 -8 7 21 80 hstemhm
          27 1020 hintmask 00110110
          440 -2 rmoveto
          63 -5 79 -7 68 14 305 839 rcurveline
          22 5 44 9 26 12 -10 85 rcurveline
          -383 hlineto
          -4 -60 callsubr
          -10 callsubr
          hintmask 01001110
          162 -28 -212 -632 rlineto
          hintmask 10010110
          -27 -102 -31 93 -221 642 44 7 52 11 44 11 rlinecurve
          -7 78 rlineto
          -411 hlineto
          -5 -9 -6 -57 callsubr
          -10 callsubr
          99 96 callgsubr
        </CharString>
        <CharString name="w">
          488 -8 callsubr
          hstemhm
          14 1531 hintmask 01101100
          364 hmoveto
          -72 callsubr
          22 5 43 9 25 61 callgsubr
          -54 callsubr
          hintmask 10011100
          -93 callgsubr
        </CharString>
        <CharString name="wacute">
          578 -8 callsubr
          132 402 hstemhm
          66 1531 -857 415 hintmask 01101101
          818 1082 rmoveto
          337 362 -23 40 -165 -5 -227 -342 20 -31 29 -17 29 -7 rlinecurve
          -402 -1082 rmoveto
          -72 callsubr
          rlineto
          hintmask 01101110
          -50 callgsubr
          hintmask 10011110
          -93 callgsubr
        </CharString>
        <CharString name="wdieresis">
          511 -8 callsubr
          130 192 hstemhm
          37 1531 -1029 191 161 191 hintmask 0110110110000000
          986 1080 rmoveto
          76 20 43 52 52 -20 45 -76 -73 -22 -45 -52 -52 22 -43 73 hvcurveto
          -352 hmoveto
          72 24 43 52 52 -24 45 -72 -74 -21 -45 -52 -52 21 -43 74 hvcurveto
          -247 -1080 rmoveto
          -72 callsubr
          rlineto
          hintmask 0110111000000000
          -50 callgsubr
          hintmask 1001111000000000
          -93 callgsubr
        </CharString>
        <CharString name="wgrave">
          511 -8 callsubr
          132 418 hstemhm
          37 1531 -1043 411 hintmask 01101101
          857 1082 rmoveto
          29 7 29 17 21 -42 callgsubr
          -138 -1439 rmoveto
          -72 callsubr
          rlineto
          hintmask 01101110
          -50 callgsubr
          hintmask 10011110
          -93 callgsubr
        </CharString>
        <CharString name="x">
          -57 0 84 760 -20 20 103 -101 -20 20 104 hstemhm
          38 981 hintmask 00000000
          hintmask 10010100
          50 hmoveto
          361 hlineto
          7 23 3 31 27 vvcurveto
          -144 23 215 288 234 -302 -99 -12 7 -78 rlineto
          372 hlineto
          11 21 4 33 -4 27 -90 14 rcurveline
          -332 406 273 345 97 26 -8 78 rlineto
          -359 hlineto
          hintmask 10001100
          -9 -23 -3 -29 3 -28 135 -24 rcurveline
          -197 -274 -200 272 110 24 rlineto
          hintmask 10010100
          -4 79 rlineto
          -383 hlineto
          hintmask 11000100
          -10 -25 -4 -26 2 -26 rrcurveto
          hintmask 10100100
          84 -20 302 -379 -287 -365 -99 -25 rlineto
          endchar
        </CharString>
        <CharString name="y">
          -26 -29 callgsubr
          hstemhm
          -5 1045 hintmask 11011100
          435 hmoveto
          -49 callgsubr
          -23 -82 rcurveline
          -58 callsubr
          hintmask 11100100
          -68 callgsubr
          hintmask 11011100
          -40 callsubr
          rlineto
          endchar
        </CharString>
        <CharString name="yacute">
          -26 -29 callgsubr
          516 40 hstemhm
          -5 1045 -607 413 hintmask 11011101
          510 -96 callgsubr
          -75 -1106 rmoveto
          -49 callgsubr
          rrcurveto
          -62 callgsubr
          hintmask 11011110
          -40 callsubr
          rlineto
          endchar
        </CharString>
        <CharString name="ydieresis">
          -26 -29 callgsubr
          256 210 hstemhm
          -5 1045 -805 66 callgsubr
          hintmask 1101110110000000
          734 -98 callsubr
          96 16 callsubr
          rmoveto
          -49 callgsubr
          rrcurveto
          hintmask 1101111000000000
          -23 -82 rlineto
          -58 callsubr
          hintmask 1110011000000000
          -21 callgsubr
          hintmask 1101110110000000
          -65 callgsubr
          46 7 58 9 44 14 rlinecurve
          -7 78 rlineto
          -35 callgsubr
          rlineto
          endchar
        </CharString>
        <CharString name="yen">
          18 0 104 130 95 120 95 378 102 hstem
          465 169 vstem
          316 hmoveto
          473 56 callsubr
          25 -5 29 -54 9 -47 5 -54 7 rrcurveto
          130 243 vlineto
          5 28 0 38 -5 29 rrcurveto
          -243 120 241 hlineto
          4 29 0 37 -4 29 rrcurveto
          -181 hlineto
          271 378 75 19 rlineto
          28 0 26 -5 29 vhcurveto
          -338 hlineto
          -5 -29 -2 -28 2 -29 142 -16 rcurveline
          -194 -265 -56 -107 -64 114 -182 258 122 16 rlineto
          29 0 28 -4 29 vhcurveto
          -402 hlineto
          -4 -29 -3 -26 3 -28 92 -19 rcurveline
          270 -378 rlineto
          -166 -95 219 -120 -217 -95 217 -130 hlineto
          -54 -7 -47 -2 -55 -12 rrcurveto
          endchar
        </CharString>
        <CharString name="ygrave">
          -17 -29 callgsubr
          132 418 hstemhm
          56 1045 -799 411 hintmask 11011101
          636 1082 rmoveto
          28 7 28 17 21 31 -238 363 rcurveline
          -151 -18 -22 -43 rlineto
          -223 -1921 rmoveto
          -62 callgsubr
          hintmask 11011101
          -40 callsubr
          342 -844 rlineto
          -49 callgsubr
          rrcurveto
          endchar
        </CharString>
        <CharString name="z">
          -161 67 callgsubr
          hstem
          92 762 vstem
          122 hmoveto
          -13 callsubr
          -1 callsubr
        </CharString>
        <CharString name="zacute">
          -145 67 callgsubr
          516 40 hstemhm
          94 762 -482 413 hintmask 11010000
          451 -96 callgsubr
          -327 -1106 rmoveto
          -13 callsubr
          hintmask 00101000
          -1 callsubr
        </CharString>
        <CharString name="zdotaccent">
          -145 67 callgsubr
          256 230 hstemhm
          85 791 -521 232 hintmask 00000000
          hintmask 11010000
          472 -24 callsubr
          -357 16 callsubr
          rmoveto
          753 hlineto
          7 76 2 154 -2 56 -34 5 -42 2 -41 -2 -32 -183 rcurveline
          -442 33 callsubr
          -18 26 vhcurveto
          -703 hlineto
          -5 -3 -4 -5 vvcurveto
          -6 -81 0 -138 2 -53 rrcurveto
          hintmask 11101000
          33 -5 43 -2 39 2 34 185 rcurveline
          397 hlineto
          -565 -711 rlineto
          -36 14 -68 16 -29 vhcurveto
          endchar
        </CharString>
        <CharString name="zero">
          214 -29 112 858 110 hstem
          140 182 654 183 vstem
          140 510 rmoveto
          -298 97 -241 368 367 187 241 303 303 -105 233 -369 -366 -179 -241 -300 vhcurveto
          182 2 rmoveto
          348 160 81 165 185 144 -81 -348 -347 -162 -82 -167 -184 -141 82 347 vhcurveto
          endchar
        </CharString>
      <CharString index="0">
        -572 570 hlineto
        492 -11 6 -79 callsubr
        39 -5 40 -13 callgsubr
        59 28 180 -3 101 -14 16 rcurveline
        -1009 -87 callgsubr
        161 40 callgsubr
      </CharString>
      <CharString index="1">
        -186 34 rlineto
        -5 callsubr
        25 callsubr
        71 12 48 17 -10 84 rcurveline
        -497 hlineto
        -5 -44 callgsubr
        -9 callsubr
        164 -43 callgsubr
        -56 -7 -72 -23 callgsubr
      </CharString>
      <CharString index="2">
        rmoveto
        -88 callgsubr
        75 123 38 14 32 vhcurveto
        -7 83 rlineto
        -84 callsubr
        return
      </CharString>
      <CharString index="3">
        1538 rmoveto
        -102 callsubr
        return
      </CharString>
      <CharString index="4">
        12 31 3 59 -3 2 -151 26 rcurveline
        -303 464 rlineto
        244 52 72 221 192 vvcurveto
        310 -138 91 -347 vhcurveto
        -561 -39 callsubr
        -1213 -7 callsubr
        347 581 rmoveto
        662 vlineto
        203 4 rlineto
        257 7 70 -113 -175 vvcurveto
        -262 -93 -123 -279 vhcurveto
        return
      </CharString>
      <CharString index="5">
        1590 rmoveto
        -99 callsubr
        -56 24 -48 80 hvcurveto
        return
      </CharString>
      <CharString index="6">
        38 callsubr
        35 callgsubr
        -103 callsubr
      </CharString>
      <CharString index="7">
        -106 callsubr
        34 callsubr
        return
      </CharString>
      <CharString index="8">
        1531 rmoveto
        232 183 234 -183 21 10 33 31 14 31 rlinecurve
        -246 260 rlineto
        -101 hlineto
        -246 -266 9 -25 31 -31 19 -10 rlinecurve
        return
      </CharString>
      <CharString index="9">
        -76 callsubr
        -80 callsubr
        hvcurveto
        endchar
      </CharString>
      <CharString index="10">
        -77 callgsubr
        -107 callgsubr
      </CharString>
      <CharString index="11">
        1106 rmoveto
        336 360 -21 42 -178 -4 -214 -343 21 -31 28 -16 28 -8 rlinecurve
        return
      </CharString>
      <CharString index="12">
        487 hlineto
        9 23 3 31 -3 27 -172 30 rcurveline
        -94 callsubr
        rrcurveto
        endchar
      </CharString>
      <CharString index="13">
        hlineto
        -5 -89 callsubr
        return
      </CharString>
      <CharString index="14">
        -24 -84 -30 117 -194 727 -62 10 -56 5 -62 -17 rlinecurve
        -197 -761 -20 -81 -27 117 -158 617 48 7 67 12 45 11 rlinecurve
        -6 78 rlineto
        -427 hlineto
        -6 -60 callsubr
        -10 callsubr
        101 96 callgsubr
      </CharString>
      <CharString index="15">
        -71 callsubr
        -71 callgsubr
      </CharString>
      <CharString index="16">
        rmoveto
        121 98 89 126 125 -90 89 -129 -122 -100 -91 -123 -126 100 -89 122 hvcurveto
        8 112 rmoveto
        -72 3 -34 50 4 62 2 50 24 33 50 5 rrcurveto
        16 hlineto
        67 -5 34 -45 -2 -63 -3 -50 -21 -35 -50 -5 rrcurveto
        return
      </CharString>
      <CharString index="17">
        1328 vlineto
        55 7 44 12 52 15 -9 86 rcurveline
        -460 -87 callgsubr
        175 -31 rlineto
        -981 vlineto
        15 -221 -81 198 -575 1000 rlineto
        -1 hlineto
        -72 124 rlineto
        -376 hlineto
        -4 18 callgsubr
        167 20 callgsubr
        -61 -23 callgsubr
      </CharString>
      <CharString index="18">
        rmoveto
        -394 2 185 -65 248 hhcurveto
        201 139 81 14 19 hvcurveto
        -34 85 rlineto
        -101 callgsubr
      </CharString>
      <CharString index="19">
        -189 134 -43 110 141 123 92 65 64 vhcurveto
        2 -47 hlineto
        -41 5 -69 112 return
      </CharString>
      <CharString index="20">
        hlineto
        -5 18 callgsubr
        return
      </CharString>
      <CharString index="21">
        -25 -49 -110 -18 -102 hhcurveto
        -361 -117 66 callsubr
        117 252 310 87 126 -11 -52 95 hvcurveto
        18 -219 38 54 callsubr
        58 28 163 -2 102 -3 12 rcurveline
        30 -72 -145 43 -213 hhcurveto
        -411 -253 57 callgsubr
        return
      </CharString>
      <CharString index="22">
        418 522 rmoveto
        200 590 25 108 18 -63 220 -635 rlineto
        endchar
      </CharString>
      <CharString index="23">
        -70 callgsubr
        -106 callgsubr
      </CharString>
      <CharString index="24">
        rmoveto
        -52 77 205 -70 155 hhcurveto
        75 135 4 61 111 hvcurveto
        97 54 78 97 151 vvcurveto
        133 -4 120 -232 128 vhcurveto
        -345 194 rlineto
        -117 64 -52 61 106 vvcurveto
        149 102 67 146 93 99 -25 -47 88 vhcurveto
        16 -198 49 -7 15 0 57 4 rlinecurve
        18 97 13 113 9 108 rrcurveto
        41 -108 -176 29 -153 hhcurveto
        -142 -106 -29 -75 -81 hvcurveto
        -66 -61 -40 -88 -130 vvcurveto
        -140 56 -65 93 -66 vhcurveto
        173 -119 196 -66 156 -133 rrcurveto
        return
      </CharString>
      <CharString index="25">
        184 hmoveto
        -87 callsubr
      </CharString>
      <CharString index="26">
        -45 callgsubr
        -78 callgsubr
        return
      </CharString>
      <CharString index="27">
        47 callsubr
        84 23 47 56 66 -23 41 -84 -81 -22 -50 -57 -56 22 -47 81 hvcurveto
        return
      </CharString>
      <CharString index="28">
        rmoveto
        -96 callsubr
        hintmask 01011010
        -66 callsubr
        hintmask 01101010
        -44 callsubr
      </CharString>
      <CharString index="29">
        26 99 -2 -36 75 hvcurveto
        18 -175 rlineto
        -33 callgsubr
        rrcurveto
        45 -103 -127 10 -88 hhcurveto
        -291 -146 -199 -315 return
      </CharString>
      <CharString index="30">
        1040 hlineto
        -68 callsubr
        -66 -223 rcurveline
        return
      </CharString>
      <CharString index="31">
        rmoveto
        -628 267 -110 374 219 187 69 50 47 vhcurveto
        -12 callsubr
        -86 callgsubr
        hvcurveto
        endchar
      </CharString>
      <CharString index="32">
        -34 callsubr
        hintmask 11111000
        -107 callgsubr
      </CharString>
      <CharString index="33">
        10 90 -105 23 -468 1335 -56 8 -86 3 -68 -11 rlinecurve
        return
      </CharString>
      <CharString index="34">
        9 -27 31 -47 24 -26 rrcurveto
        274 127 149 242 410 vvcurveto
        1161 25 callsubr
        73 12 47 17 -9 84 rcurveline
        -517 hlineto
        -5 -9 -5 -21 -31 callgsubr
        -13 3 -17 vhcurveto
        179 -31 rlineto
        return
      </CharString>
      <CharString index="35">
        -60 1 -74 106 -100 5 -91 5 -138 -106 -39 -86 rrcurveto
        return
      </CharString>
      <CharString index="36">
        -236 vlineto
        -78 -101 -97 -26 -66 hhcurveto
        -64 -62 26 95 hvcurveto
        endchar
      </CharString>
      <CharString index="37">
        527 -60 callgsubr
        26 callgsubr
        return
      </CharString>
      <CharString index="38">
        71 -3 79 -112 88 -1 81 -1 129 65 59 160 -59 44 rcurveline
        -53 -66 -70 -55 -58 1 return
      </CharString>
      <CharString index="39">
        -21 callgsubr
        -65 callgsubr
        rlineto
        return
      </CharString>
      <CharString index="40">
        981 60 callsubr
        12 148 2 93 rlinecurve
        -31 9 -41 2 -37 -2 -73 -225 rcurveline
        -664 hlineto
        796 1217 rlineto
        36 -22 50 -18 25 vhcurveto
        -943 hlineto
        -12 -16 return
      </CharString>
      <CharString index="41">
        77 vlineto
        76 -3 62 -113 -55 -124 -29 -23 -58 vhcurveto
        13 -86 rlineto
        179 -18 callsubr
        -61 71 callsubr
        rrcurveto
        return
      </CharString>
      <CharString index="42">
        -400 hlineto
        -4 -60 callsubr
        -10 callsubr
        174 -30 -241 -748 -30 123 -238 627 return
      </CharString>
      <CharString index="43">
        rmoveto
        -429 207 -65 221 190 93 callsubr
        22 vhcurveto
        -42 90 rlineto
        -81 callgsubr
        hvcurveto
        endchar
      </CharString>
      <CharString index="44">
        -67 callgsubr
        -2 -101 28 -138 9 -75 rlinecurve
        -43 callsubr
      </CharString>
      <CharString index="45">
        hintmask 11011110
        -23 -82 rlineto
        -58 callsubr
        hintmask 11100110
        -68 callgsubr
        return
      </CharString>
      <CharString index="46">
        7 52 2 73 -4 33 rrcurveto
        7 -26 -47 2 -20 hhcurveto
        -94 -64 -36 -54 -42 hvcurveto
        -21 -25 -45 -79 -12 -25 rrcurveto
        return
      </CharString>
      <CharString index="47">
        56 callgsubr
        -48 callgsubr
        15 return
      </CharString>
      <CharString index="48">
        70 695 rmoveto
        -404 320 -320 404 402 322 320 404 401 -322 322 -402 -404 -320 -322 -401 vhcurveto
        122 hmoveto
        336 245 273 357 354 246 -273 -336 -336 -250 -274 -350 -350 -252 274 336 vhcurveto
        return
      </CharString>
      <CharString index="49">
        -454 -1330 -32 -7 -53 -12 -18 -9 rlinecurve
        return
      </CharString>
      <CharString index="50">
        499 hlineto
        4 -20 callsubr
        26 callgsubr
        -196 32 rlineto
        989 vlineto
        -9 172 66 -165 655 -1136 rlineto
        -3 vlineto
        return
      </CharString>
      <CharString index="51">
        324 123 73 153 173 104 -73 -324 return
      </CharString>
      <CharString index="52">
        761 63 callsubr
        2 73 callgsubr
        hhcurveto
        return
      </CharString>
      <CharString index="53">
        -19 callsubr
        -56 callsubr
        return
      </CharString>
      <CharString index="54">
        -70 hlineto
        -464 -160 -336 -422 hvcurveto
        return
      </CharString>
      <CharString index="55">
        rmoveto
        18 callsubr
        -73 callgsubr
        endchar
      </CharString>
      <CharString index="56">
        1389 vlineto
        41 -4 69 80 callsubr
        -142 -38 -14 -33 vhcurveto
        12 -88 rlineto
        185 -1359 hlineto
        -50 -9 -61 -10 -50 -14 rrcurveto
        return
      </CharString>
      <CharString index="57">
        22 5 43 9 25 12 -9 85 rcurveline
        -54 callsubr
        return
      </CharString>
      <CharString index="58">
        90 hlineto
        -56 -160 -70 -156 -49 -72 -57 -81 -61 -16 -57 -4 -53 -5 -44 5 -60 7 return
      </CharString>
      <CharString index="59">
        29 -48 callsubr
        return
      </CharString>
      <CharString index="60">
        -35 callsubr
        -72 callgsubr
        return
      </CharString>
      <CharString index="61">
        122 -20 20 -5 callsubr
        120 return
      </CharString>
      <CharString index="62">
        6 callsubr
        -228 -75 92 284 291 82 97 145 return
      </CharString>
      <CharString index="63">
        -9 -7 -21 -31 callgsubr
        -23 return
      </CharString>
      <CharString index="64">
        -31 rlineto
        16 callsubr
        vlineto
        return
      </CharString>
      <CharString index="65">
        31 -239 363 rcurveline
        -151 -18 -21 -43 rlineto
        return
      </CharString>
      <CharString index="66">
        318 2 -71 131 -290 hhcurveto
        return
      </CharString>
      <CharString index="67">
        rmoveto
        60 -28 136 -29 86 3 rrcurveto
        205 4 147 104 164 vvcurveto
        87 -41 125 -237 -2 vhcurveto
        115 38 104 57 131 vvcurveto
        124 -97 70 -210 -149 -104 -68 -16 -15 vhcurveto
        54 -85 rlineto
        return
      </CharString>
      <CharString index="68">
        rmoveto
        63 52 27 88 88 -52 27 -63 -65 -52 -27 -88 -88 52 -27 65 hvcurveto
        return
      </CharString>
      <CharString index="69">
        120 -21 21 -10 8 378 116 return
      </CharString>
      <CharString index="70">
        183 102 329 196 232 vvcurveto
        210 -155 47 -167 -161 -130 -97 -16 -16 vhcurveto
        61 -90 rlineto
        31 45 99 52 88 hhcurveto
        111 61 -49 -81 -210 -328 -185 -144 -99 hvcurveto
        return
      </CharString>
      <CharString index="71">
        -508 1208 hlineto
        54 7 99 14 45 15 -9 84 rcurveline
        -523 hlineto
        -4 -9 -3 -18 -2 -22 rrcurveto
        -10 -2 -13 2 -17 vhcurveto
        163 40 callgsubr
      </CharString>
      <CharString index="72">
        -397 hlineto
        -4 -9 -9 -57 callsubr
        -9 callsubr
        72 -26 return
      </CharString>
      <CharString index="73">
        49 callgsubr
        564 -2 callsubr
        return
      </CharString>
      <CharString index="74">
        -5 37 21 0 39 hhcurveto
        13 54 30 142 -7 76 return
      </CharString>
      <CharString index="75">
        132 58 callgsubr
        -135 140 730 138 return
      </CharString>
      <CharString index="76">
        -19 vvcurveto
        -10 0 return
      </CharString>
      <CharString index="77">
        -57 callgsubr
        43 callgsubr
        return
      </CharString>
      <CharString index="78">
        -620 131 510 -21 839 111 -109 16 15 78 return
      </CharString>
      <CharString index="79">
        -394 2 185 -65 248 hhcurveto
        return
      </CharString>
      <CharString index="80">
        0 -46 callgsubr
        return
      </CharString>
      <CharString index="81">
        -28 callsubr
        hvcurveto
        -82 callgsubr
      </CharString>
      <CharString index="82">
        -160 32 rlineto
        444 vlineto
        -7 97 16 0 81 hhcurveto
        38 hlineto
        return
      </CharString>
      <CharString index="83">
        rmoveto
        -28 callgsubr
        201 139 81 14 19 hvcurveto
        -34 85 rlineto
        return
      </CharString>
      <CharString index="84">
        -7 -52 7 callsubr
      </CharString>
      <CharString index="85">
        rmoveto
        63 -47 -6 -73 -70 -144 -27 -38 rlinecurve
        -4 callsubr
        -41 16 -87 34 -62 -27 -18 -97 rrcurveto
        endchar
      </CharString>
      <CharString index="86">
        289 837 23 5 43 9 26 61 callgsubr
        return
      </CharString>
      <CharString index="87">
        rlineto
        -7 -16 -43 -15 -31 hhcurveto
        -52 -16 27 29 return
      </CharString>
      <CharString index="88">
        342 157 225 279 return
      </CharString>
      <CharString index="89">
        -28 -31 callgsubr
        -16 return
      </CharString>
      <CharString index="90">
        -18 callgsubr
        -10 callsubr
        return
      </CharString>
      <CharString index="91">
        80 callgsubr
        730 138 return
      </CharString>
      <CharString index="92">
        -24 callgsubr
        38 callsubr
        return
      </CharString>
      <CharString index="93">
        vvcurveto
        9 0 return
      </CharString>
      <CharString index="94">
        -2 30 7 rlinecurve
        15 return
      </CharString>
      <CharString index="95">
        59 -51 7 -55 -70 vvcurveto
        -144 -79 -93 -174 -140 -99 48 56 -92 vhcurveto
        -14 95 0 40 -14 78 -52 6 -15 3 -52 -3 rrcurveto
        endchar
      </CharString>
      <CharString index="96">
        1585 3 callsubr
        return
      </CharString>
      <CharString index="97">
        58 54 88 44 43 -2 return
      </CharString>
      <CharString index="98">
        -49 callsubr
        -53 callgsubr
        return
      </CharString>
      <CharString index="99">
        1542 rmoveto
        101 hlineto
        246 266 -9 25 -31 31 -19 10 rlinecurve
        -232 -183 -234 183 -21 -10 -33 -31 -14 -31 rlinecurve
        return
      </CharString>
      <CharString index="100">
        0 130 -12 12 1196 7 -4 118 return
      </CharString>
      <CharString index="101">
        -40 123 1268 126 return
      </CharString>
      <CharString index="102">
        259 163 130 255 76 -18 67 -37 54 hvcurveto
        3 26 28 1 30 hhcurveto
        104 140 hlineto
        -101 16 -106 -39 -49 -51 rrcurveto
        return
      </CharString>
      <CharString index="103">
        5 26 4 32 -4 27 -50 9 -64 7 -51 8 rrcurveto
        732 vlineto
        return
      </CharString>
      <CharString index="104">
        vlineto
        1 callgsubr
        return
      </CharString>
      <CharString index="105">
        -27 124 1231 19 12 89 return
      </CharString>
      <CharString index="106">
        -34 2 -32 9 -22 vhcurveto
        97 12 rlineto
        230 17 9 -90 -69 vvcurveto
        -134 -114 -34 -113 -97 -73 27 14 -47 vhcurveto
        return
      </CharString>
      <CharString index="107">
        97 -5 rlineto
        36 88 41 149 174 vvcurveto
        8 -127 42 callsubr
        -9 -132 -7 -88 vhcurveto
        return
      </CharString>
      <CharString index="108">
        41 -5 67 80 callsubr
        -127 -39 -13 -33 91 callgsubr
        return
      </CharString>
      <CharString index="109">
        39 -163 245 -865 48 -9 128 -7 70 16 rlinecurve
        305 1335 33 5 28 7 24 8 rlinecurve
        return
      </CharString>
      <CharString index="110">
        -1181 -920 rmoveto
        480 hlineto
        -4 callgsubr
        -34 41 return
      </CharString>
      <CharString index="111">
        -395 hlineto
        -4 -91 36 -11 61 -4 61 -5 rlinecurve
        -226 -1037 -27 -163 -36 125 -278 1050 return
      </CharString>
      <CharString index="112">
        -129 6 -92 -31 -92 vhcurveto
        -25 -75 -50 -74 -99 -111 return
      </CharString>
      <CharString index="113">
        111 714 158 -142 138 return
      </CharString>
      <CharString index="114">
        -48 callgsubr
        17 return
      </CharString>
      <CharString index="115">
        0 81 -81 108 733 138 -135 135 return
      </CharString>
      <CharString index="116">
        -29 callsubr
        36 callgsubr
        -55 callgsubr
        return
      </CharString>
      <CharString index="117">
        24 -48 callsubr
        12 -2 8 vhcurveto
        return
      </CharString>
      <CharString index="118">
        142 284 hvcurveto
        return
      </CharString>
      <CharString index="119">
        111 hmoveto
        0 callsubr
        -196 32 rlineto
        return
      </CharString>
      <CharString index="120">
        183 -641 hlineto
        -41 -5 -90 -10 -54 -9 rrcurveto
        return
      </CharString>
      <CharString index="121">
        28 -29 107 794 107 return
      </CharString>
      <CharString index="122">
        1205 rmoveto
        64 51 28 88 87 -51 28 -64 -63 -52 -28 -87 -88 52 -28 63 hvcurveto
        return
      </CharString>
      <CharString index="123">
        831 -9 144 -142 149 -130 5 callsubr
        return
      </CharString>
      <CharString index="124">
        27 callgsubr
        82 99 83 return
      </CharString>
      <CharString index="125">
        -89 callsubr
        -10 callsubr
        return
      </CharString>
      <CharString index="126">
        -9 -7 -18 callgsubr
        return
      </CharString>
      <CharString index="127">
        13 callsubr
        -7 return
      </CharString>
      <CharString index="128">
        20 97 -65 47 rcurveline
        8 74 68 144 29 37 -55 38 rcurveline
        -48 -28 -153 return
      </CharString>
      <CharString index="129">
        500 0 -21 21 130 -22 22 23 callsubr
        return
      </CharString>
      <CharString index="130">
        480 31 rmoveto
        97 -47 824 1529 -28 23 -31 17 -43 5 rlinecurve
        return
      </CharString>
      <CharString index="131">
        55 callsubr
        118 252 309 return
      </CharString>
      <CharString index="132">
        49 callgsubr
        1208 return
      </CharString>
      <CharString index="133">
        -3 7 vhcurveto
        return
      </CharString>
      <CharString index="134">
        34 27 47 vhcurveto
        -40 88 -20 callgsubr
        return
      </CharString>
      <CharString index="135">
        246 -931 47 -9 128 -7 71 16 rlinecurve
        304 1335 return
      </CharString>
      <CharString index="136">
        hlineto
        5 31 0 26 -5 31 return
      </CharString>
      <CharString index="137">
        193 220 0 -20 hstemhm
        return
      </CharString>
      <CharString index="138">
        158 371 hstemhm
        return
      </CharString>
      <CharString index="139">
        151 2 rlineto
        384 -12 162 -123 -413 vvcurveto
        -76 vlineto
        return
      </CharString>
      <CharString index="140">
        487 hlineto
        7 23 5 29 -5 29 return
      </CharString>
      <CharString index="141">
        168 hintmask 00000000
        return
      </CharString>
      <CharString index="142">
        620 5 rlineto
        return
      </CharString>
      <CharString index="143">
        -172 30 rcurveline
        return
      </CharString>
      <CharString index="144">
        11 -86 rlineto
        return
      </CharString>
      <CharString index="145">
        hlineto
        44 217 -38 22 -28 5 -47 -5 rlinecurve
        -48 -239 rlineto
        return
      </CharString>
      <CharString index="146">
        -438 -437 2193 hstem
        248 133 vstem
        248 return
      </CharString>
      <CharString index="147">
        -31 rlineto
        63 callgsubr
        -55 callsubr
      </CharString>
      <CharString index="148">
        34 callsubr
        -42 callsubr
        rlinecurve
        return
      </CharString>
      <CharString index="149">
        101 683 118 hstemhm
        525 163 -111 170 return
      </CharString>
      <CharString index="150">
        54 -10 108 10 57 21 rrcurveto
        return
      </CharString>
      <CharString index="151">
        -29 133 1247 126 return
      </CharString>
      <CharString index="152">
        128 191 122 return
      </CharString>
      <CharString index="153">
        112 203 114 return
      </CharString>
      <CharString index="154">
        hstemhm
        35 callsubr
        return
      </CharString>
      <CharString index="155">
        -7 82 callsubr
        return
      </CharString>
      <CharString index="156">
        0 120 return
      </CharString>
      <CharString index="157">
        rmoveto
        33 -7 125 -5 69 14 246 927 rcurveline
        return
      </CharString>
      <CharString index="158">
        -366 -122 -228 -309 vhcurveto
        -50 hlineto
        endchar
      </CharString>
      <CharString index="159">
        -395 hlineto
        -5 -91 35 -11 62 -4 61 -5 rlinecurve
        return
      </CharString>
      <CharString index="160">
        68 callgsubr
        vhcurveto
        return
      </CharString>
      <CharString index="161">
        5 27 0 39 -5 27 rrcurveto
        return
      </CharString>
      <CharString index="162">
        58 callgsubr
        764 109 return
      </CharString>
      <CharString index="163">
        hlineto
        5 9 7 return
      </CharString>
      <CharString index="164">
        -253 -515 return
      </CharString>
      <CharString index="165">
        -29 135 return
      </CharString>
      <CharString index="166">
        vlineto
        48 71 116 45 123 hhcurveto
        184 return
      </CharString>
      <CharString index="167">
        109 520 138 hstemhm
        70 callsubr
        return
      </CharString>
      <CharString index="168">
        12 rlinecurve
        -9 85 rlineto
        return
      </CharString>
      <CharString index="169">
        vstem
        95 499 rmoveto
        return
      </CharString>
      <CharString index="170">
        -1208 return
      </CharString>
      <CharString index="171">
        -30 -194 -31 156 -279 983 return
      </CharString>
      <CharString index="172">
        hlineto
        -61 -9 -56 -11 -39 -13 rrcurveto
        endchar
      </CharString>
      <CharString index="173">
        211 185 210 return
      </CharString>
      <CharString index="174">
        0 108 736 106 return
      </CharString>
      <CharString index="175">
        -61 -121 -32 -20 -52 return
      </CharString>
      <CharString index="176">
        -86 rlineto
        173 return
      </CharString>
      <CharString index="177">
        90 72 callgsubr
        return
      </CharString>
      <CharString index="178">
        hlineto
        5 28 0 return
      </CharString>
      <CharString index="179">
        343 hstemhm
        return
      </CharString>
      <CharString index="180">
        66 -116 return
      </CharString>
      <CharString index="181">
        2 -40 -2 -36 -155 rcurveline
        -440 return
      </CharString>
      <CharString index="182">
        5 -21 30 -21 26 -21 196 101 return
      </CharString>
      <CharString index="183">
        0 118 714 -20 32 135 return
      </CharString>
      <CharString index="184">
        85 -85 109 641 132 hstemhm
        return
      </CharString>
      <CharString index="185">
        -218 -142 -224 rrcurveto
        endchar
      </CharString>
      <CharString index="186">
        -54 -7 -48 -5 -47 -11 rrcurveto
        endchar
      </CharString>
      <CharString index="187">
        0 111 return
      </CharString>
      <CharString index="188">
        149 hlineto
        return
      </CharString>
      <CharString index="189">
        -49 -58 -56 return
      </CharString>
      <CharString index="190">
        11 -66 7 -81 5 rrcurveto
        742 return
      </CharString>
      <CharString index="191">
        -478 93 2049 92 hstem
        return
      </CharString>
      <CharString index="192">
        -15 -31 hhcurveto
        -52 -16 27 29 84 return
      </CharString>
      <CharString index="193">
        -27 119 1270 115 return
      </CharString>
      <CharString index="194">
        85 28 47 67 62 -28 49 -85 return
      </CharString>
      <CharString index="195">
        84 27 48 61 61 -27 50 -84 return
      </CharString>
      <CharString index="196">
        -78 93 callgsubr
        return
      </CharString>
      <CharString index="197">
        hstemhm
        208 166 return
      </CharString>
      <CharString index="198">
        vhcurveto
        37 callgsubr
        return
      </CharString>
      <CharString index="199">
        1172 rmoveto
        return
      </CharString>
      <CharString index="200">
        rcurveline
        442 hlineto
        return
      </CharString>
      <CharString index="201">
        vlineto
        41 0 66 return
      </CharString>
      <CharString index="202">
        97 172 return
      </CharString>
      <CharString index="203">
        -26 rlineto
        endchar
      </CharString>
</ttFont>
